<?xml version="1.0" encoding="UTF-8" standalone="no"?>
<!DOCTYPE svg PUBLIC "-//W3C//DTD SVG 1.1//EN" "http://www.w3.org/Graphics/SVG/1.1/DTD/svg11.dtd">
<svg width="100%" height="100%" viewBox="0 0 495 264" version="1.1" xmlns="http://www.w3.org/2000/svg" xmlns:xlink="http://www.w3.org/1999/xlink" xml:space="preserve" xmlns:serif="http://www.serif.com/" style="fill-rule:evenodd;clip-rule:evenodd;stroke-linejoin:round;stroke-miterlimit:10;">
    <g transform="matrix(1,0,0,1,-50.517,-309.643)">
        <g transform="matrix(1,0,0,1,0,40.74)">
            <rect x="50.734" y="269.12" width="493.91" height="262.82" style="fill:white;"/>
        </g>
        <g transform="matrix(1,0,0,1,0,39.38)">
            <path d="M94.633,484.53L531.68,484.53M94.633,460.72L531.68,460.72M94.633,436.9L531.68,436.9M94.633,413.09L531.68,413.09M94.633,389.27L531.68,389.27M94.633,365.53L531.68,365.53M94.633,341.71L531.68,341.71M94.633,317.89L531.68,317.89" style="fill:none;fill-rule:nonzero;stroke:rgb(218,218,218);stroke-width:0.43px;"/>
        </g>
        <g transform="matrix(1,0,0,1,0,63.17)">
            <path d="M240.31,294.1L240.31,484.53M385.97,294.1L385.97,484.53M531.68,294.1L531.68,484.53" style="fill:none;fill-rule:nonzero;stroke:rgb(218,218,218);stroke-width:0.43px;"/>
        </g>
        <g transform="matrix(0,-1,-1,0,483.948,547.118)">
            <path d="M-0.582,389.315L189.848,389.315" style="fill:none;fill-rule:nonzero;stroke:rgb(218,218,218);stroke-width:0.43px;"/>
        </g>
        <g transform="matrix(1,0,0,1,0,253.6)">
            <path d="M94.633,294.1L531.68,294.1" style="fill:none;fill-rule:nonzero;stroke:rgb(218,218,218);stroke-width:0.43px;"/>
        </g>
        <g transform="matrix(1,0,0,1,0,33.99)">
            <clipPath id="_clip1">
                <rect x="94.584" y="323.22" width="437.47" height="190.86"/>
            </clipPath>
            <g clip-path="url(#_clip1)">
                <path d="M94.633,476.66L240.31,428.48L385.97,378.76L531.68,331.15" style="fill:none;fill-rule:nonzero;stroke:rgb(68,114,196);stroke-width:1.01px;stroke-linecap:round;"/>
            </g>
        </g>
        <g transform="matrix(1,0,0,1,0,179.49)">
            <path d="M96.418,332.89L92.947,329.42M94.682,329.42L94.682,332.89M92.947,332.89L96.418,329.42" style="fill:none;fill-rule:nonzero;stroke:rgb(68,114,196);stroke-width:0.43px;"/>
        </g>
        <g transform="matrix(1,0,0,1,0,83.13)">
            <path d="M242.08,381.07L238.61,377.6M240.34,377.6L240.34,381.07M238.61,381.07L242.08,377.6" style="fill:none;fill-rule:nonzero;stroke:rgb(68,114,196);stroke-width:0.43px;"/>
        </g>
        <g transform="matrix(1,0,0,1,0,-16.29)">
            <path d="M387.74,430.78L384.27,427.31M386,427.31L386,430.78M384.27,430.78L387.74,427.31" style="fill:none;fill-rule:nonzero;stroke:rgb(68,114,196);stroke-width:0.43px;"/>
        </g>
        <g transform="matrix(1,0,0,1,0,-111.55)">
            <path d="M533.47,478.41L530,474.94M531.73,474.94L531.73,478.41M530,478.41L533.47,474.94" style="fill:none;fill-rule:nonzero;stroke:rgb(68,114,196);stroke-width:0.43px;"/>
        </g>
        <g transform="matrix(1,0,0,1,0,118.51)">
            <clipPath id="_clip2">
                <rect x="94.584" y="238.7" width="437.47" height="190.86"/>
            </clipPath>
            <g clip-path="url(#_clip2)">
                <path d="M94.633,397.71L240.31,373.53L385.97,349.44L531.68,325.58" style="fill:none;fill-rule:nonzero;stroke:rgb(237,125,49);stroke-width:1.01px;stroke-linecap:round;"/>
            </g>
        </g>
        <g transform="matrix(1,0,0,1,0,190.61)">
            <path d="M96.418,327.33L92.947,323.86M94.682,323.86L94.682,327.33M92.947,327.33L96.418,323.86" style="fill:none;fill-rule:nonzero;stroke:rgb(237,125,49);stroke-width:0.43px;"/>
        </g>
        <g transform="matrix(1,0,0,1,0,142.29)">
            <path d="M242.08,351.49L238.61,348.02M240.34,348.02L240.34,351.49M238.61,351.49L242.08,348.02" style="fill:none;fill-rule:nonzero;stroke:rgb(237,125,49);stroke-width:0.43px;"/>
        </g>
        <g transform="matrix(1,0,0,1,0,94.1)">
            <path d="M387.74,375.59L384.27,372.11M386,372.11L386,375.59M384.27,375.59L387.74,372.11" style="fill:none;fill-rule:nonzero;stroke:rgb(237,125,49);stroke-width:0.43px;"/>
        </g>
        <g transform="matrix(1,0,0,1,0,46.33)">
            <path d="M533.47,399.47L530,396M531.73,396L531.73,399.47M530,399.47L533.47,396" style="fill:none;fill-rule:nonzero;stroke:rgb(237,125,49);stroke-width:0.43px;"/>
        </g>
        <g transform="matrix(1,0,0,1,0,120.25)">
            <clipPath id="_clip3">
                <rect x="94.584" y="236.96" width="437.47" height="190.86"/>
            </clipPath>
            <g clip-path="url(#_clip3)">
                <path d="M94.633,396.48L240.31,372.69L385.97,348.88L531.68,325.07" style="fill:none;fill-rule:nonzero;stroke:rgb(166,166,166);stroke-width:1.01px;stroke-linecap:round;"/>
            </g>
        </g>
        <g transform="matrix(0,-1,-1,0,419.727,611.438)">
            <ellipse cx="94.683" cy="325.045" rx="1.735" ry="1.736" style="fill:rgb(166,166,166);stroke:rgb(166,166,166);stroke-width:0.43px;"/>
        </g>
        <g transform="matrix(0,-1,-1,0,589.2,733.29)">
            <circle cx="240.345" cy="348.855" r="1.735" style="fill:rgb(166,166,166);stroke:rgb(166,166,166);stroke-width:0.43px;"/>
        </g>
        <g transform="matrix(0,-1,-1,0,758.675,855.135)">
            <ellipse cx="386.005" cy="372.67" rx="1.74" ry="1.735" style="fill:rgb(166,166,166);stroke:rgb(166,166,166);stroke-width:0.43px;"/>
        </g>
        <g transform="matrix(0,-1,-1,0,928.22,977.05)">
            <circle cx="531.735" cy="396.485" r="1.735" style="fill:rgb(166,166,166);stroke:rgb(166,166,166);stroke-width:0.43px;"/>
        </g>
        <g transform="matrix(1,0,0,1,0,115.76)">
            <clipPath id="_clip4">
                <rect x="94.584" y="241.45" width="437.47" height="190.86"/>
            </clipPath>
            <g clip-path="url(#_clip4)">
                <path d="M94.633,402.06L240.31,371.91L385.97,348.16L531.68,323.98" style="fill:none;fill-rule:nonzero;stroke:rgb(255,192,0);stroke-width:1.01px;stroke-linecap:round;"/>
            </g>
        </g>
        <g transform="matrix(1,0,0,1,0,193.8)">
            <path d="M96.418,325.74L92.947,322.26M94.682,322.26L94.682,325.74M92.947,325.74L96.418,322.26" style="fill:none;fill-rule:nonzero;stroke:rgb(255,192,0);stroke-width:0.43px;"/>
        </g>
        <g transform="matrix(1,0,0,1,0,133.53)">
            <path d="M242.08,355.87L238.61,352.4M240.34,352.4L240.34,355.87M238.61,355.87L242.08,352.4" style="fill:none;fill-rule:nonzero;stroke:rgb(255,192,0);stroke-width:0.43px;"/>
        </g>
        <g transform="matrix(1,0,0,1,0,86.05)">
            <path d="M387.74,379.61L384.27,376.14M386,376.14L386,379.61M384.27,379.61L387.74,376.14" style="fill:none;fill-rule:nonzero;stroke:rgb(255,192,0);stroke-width:0.43px;"/>
        </g>
        <g transform="matrix(1,0,0,1,0,37.73)">
            <path d="M533.47,403.77L530,400.3M531.73,400.3L531.73,403.77M530,403.77L533.47,400.3" style="fill:none;fill-rule:nonzero;stroke:rgb(255,192,0);stroke-width:0.43px;"/>
        </g>
        <g transform="matrix(1,0,0,1,0,93.98)">
            <clipPath id="_clip5">
                <rect x="94.584" y="263.23" width="437.47" height="190.86"/>
            </clipPath>
            <g clip-path="url(#_clip5)">
                <path d="M94.633,416.39L240.31,385.01L385.97,356.89L531.68,331.43" style="fill:none;fill-rule:nonzero;stroke:rgb(91,155,213);stroke-width:1.01px;stroke-linecap:round;"/>
            </g>
        </g>
        <g transform="matrix(1,0,0,1,0,178.95)">
            <path d="M96.418,333.16L92.947,329.69M94.682,329.69L94.682,333.16M92.947,333.16L96.418,329.69" style="fill:rgb(91,155,213);fill-rule:nonzero;stroke:rgb(91,155,213);stroke-width:0.43px;"/>
        </g>
        <g transform="matrix(1,0,0,1,0,116.17)">
            <path d="M242.08,364.55L238.61,361.08M240.34,361.08L240.34,364.55M238.61,364.55L242.08,361.08" style="fill:rgb(91,155,213);fill-rule:nonzero;stroke:rgb(91,155,213);stroke-width:0.43px;"/>
        </g>
        <g transform="matrix(1,0,0,1,0,59.94)">
            <path d="M387.74,392.67L384.27,389.19M386,389.19L386,392.67M384.27,392.67L387.74,389.19" style="fill:rgb(91,155,213);fill-rule:nonzero;stroke:rgb(91,155,213);stroke-width:0.43px;"/>
        </g>
        <g transform="matrix(1,0,0,1,0,8.98)">
            <path d="M533.47,418.15L530,414.67M531.73,414.67L531.73,418.15M530,418.15L533.47,414.67" style="fill:rgb(91,155,213);fill-rule:nonzero;stroke:rgb(91,155,213);stroke-width:0.43px;"/>
        </g>
        <text x="87.168px" y="549.24px" style="font-family:'Calibri', sans-serif;font-size:5.208px;fill:rgb(88,88,88);">1</text>
        <text x="84.528px" y="525.43px" style="font-family:'Calibri', sans-serif;font-size:5.208px;fill:rgb(88,88,88);">10</text>
        <text x="81.888px" y="501.62px" style="font-family:'Calibri', sans-serif;font-size:5.208px;fill:rgb(88,88,88);">100</text>
        <text x="79.248px" y="477.82px" style="font-family:'Calibri', sans-serif;font-size:5.208px;fill:rgb(88,88,88);">1000</text>
        <text x="76.608px" y="454.01px" style="font-family:'Calibri', sans-serif;font-size:5.208px;fill:rgb(88,88,88);">10000</text>
        <text x="73.992px" y="430.2px" style="font-family:'Calibri', sans-serif;font-size:5.208px;fill:rgb(88,88,88);">10000<tspan x="87.072px " y="430.2px ">0</tspan></text>
        <text x="71.352px" y="406.39px" style="font-family:'Calibri', sans-serif;font-size:5.208px;fill:rgb(88,88,88);">10000<tspan x="84.432px " y="406.39px ">0</tspan>0</text>
        <text x="68.712px" y="382.58px" style="font-family:'Calibri', sans-serif;font-size:5.208px;fill:rgb(88,88,88);">10000000</text>
        <text x="66.072px" y="358.78px" style="font-family:'Calibri', sans-serif;font-size:5.208px;fill:rgb(88,88,88);">100000000</text>
        <text x="91.32px" y="556.01px" style="font-family:'Calibri', sans-serif;font-size:5.208px;fill:rgb(88,88,88);">1<tspan x="94.656px " y="556.01px ">0</tspan></text>
        <text x="235.37px" y="556.01px" style="font-family:'Calibri', sans-serif;font-size:5.208px;fill:rgb(88,88,88);">1<tspan x="238.706px 242.043px " y="556.01px 556.01px ">00</tspan></text>
        <text x="379.42px" y="556.01px" style="font-family:'Calibri', sans-serif;font-size:5.208px;fill:rgb(88,88,88);">1<tspan x="382.756px 386.093px 389.429px " y="556.01px 556.01px 556.01px ">000</tspan></text>
        <text x="523.46px" y="556.01px" style="font-family:'Calibri', sans-serif;font-size:5.208px;fill:rgb(88,88,88);">1<tspan x="526.796px 530.133px 533.469px 536.806px " y="556.01px 556.01px 556.01px 556.01px ">0000</tspan></text>
        <g transform="matrix(-4.4e-08,-1,1,-4.4e-08,0,0)">
            <text x="-480.89px" y="62.904px" style="font-family:'Calibri', sans-serif;font-size:5.208px;fill:rgb(88,88,88);">N</text>
            <text x="-477.552px" y="62.904px" style="font-family:'Calibri', sans-serif;font-size:5.208px;fill:rgb(88,88,88);">OMBRE</text>
            <text x="-460.178px" y="62.904px" style="font-family:'Calibri', sans-serif;font-size:5.208px;fill:rgb(88,88,88);">D&apos;AFFECTA<tspan x="-437.129px -434.588px " y="62.904px 62.904px ">TI</tspan></text>
            <text x="-433.273px" y="62.904px" style="font-family:'Calibri', sans-serif;font-size:5.208px;fill:rgb(88,88,88);">O</text>
            <text x="-429.789px" y="62.904px" style="font-family:'Calibri', sans-serif;font-size:5.208px;fill:rgb(88,88,88);">NS</text>
        </g>
        <g>
            <text x="289.78px" y="564.1px" style="font-family:'Calibri', sans-serif;font-size:5.208px;fill:rgb(88,88,88);">N</text>
            <text x="293.118px" y="564.1px" style="font-family:'Calibri', sans-serif;font-size:5.208px;fill:rgb(88,88,88);">OMBRE</text>
            <text x="310.492px" y="564.1px" style="font-family:'Calibri', sans-serif;font-size:5.208px;fill:rgb(88,88,88);">DE</text>
            <text x="317.413px" y="564.1px" style="font-family:'Calibri', sans-serif;font-size:5.208px;fill:rgb(88,88,88);">V</text>
            <text x="320.397px" y="564.1px" style="font-family:'Calibri', sans-serif;font-size:5.208px;fill:rgb(88,88,88);">A</text>
            <text x="323.371px" y="564.1px" style="font-family:'Calibri', sans-serif;font-size:5.208px;fill:rgb(88,88,88);">LE</text>
            <text x="328.162px" y="564.1px" style="font-family:'Calibri', sans-serif;font-size:5.208px;fill:rgb(88,88,88);">U</text>
            <text x="331.506px" y="564.1px" style="font-family:'Calibri', sans-serif;font-size:5.208px;fill:rgb(88,88,88);">RS</text>
        </g>
        <g>
            <text x="150.14px" y="323.06px" style="font-family:'Calibri-Bold', 'Calibri', sans-serif;font-weight:700;font-size:9.216px;fill:rgb(88,88,88);">N<tspan x="156.909px 163.84px 172.594px 178.458px 184.345px " y="323.06px 323.06px 323.06px 323.06px 323.06px ">OMBRE</tspan></text>
            <text x="192.395px" y="323.06px" style="font-family:'Calibri-Bold', 'Calibri', sans-serif;font-weight:700;font-size:9.216px;fill:rgb(88,88,88);">D<tspan x="198.903px 201.753px 208.036px 212.965px 217.893px 222.952px 228.574px " y="323.06px 323.06px 323.06px 323.06px 323.06px 323.06px 323.06px ">&apos;AFFECT</tspan></text>
            <text x="233.111px" y="323.06px" style="font-family:'Calibri-Bold', 'Calibri', sans-serif;font-weight:700;font-size:9.216px;fill:rgb(88,88,88);">A</text>
            <text x="238.742px" y="323.06px" style="font-family:'Calibri-Bold', 'Calibri', sans-serif;font-weight:700;font-size:9.216px;fill:rgb(88,88,88);">T</text>
            <text x="244.013px" y="323.06px" style="font-family:'Calibri-Bold', 'Calibri', sans-serif;font-weight:700;font-size:9.216px;fill:rgb(88,88,88);">I<tspan x="247.148px " y="323.06px ">O</tspan></text>
            <text x="254.059px" y="323.06px" style="font-family:'Calibri-Bold', 'Calibri', sans-serif;font-weight:700;font-size:9.216px;fill:rgb(88,88,88);">N<tspan x="260.829px " y="323.06px ">S</tspan></text>
            <text x="268.63px" y="323.06px" style="font-family:'Calibri-Bold', 'Calibri', sans-serif;font-weight:700;font-size:9.216px;fill:rgb(88,88,88);">E<tspan x="273.825px " y="323.06px ">N</tspan></text>
            <text x="283.385px" y="323.06px" style="font-family:'Calibri-Bold', 'Calibri', sans-serif;font-weight:700;font-size:9.216px;fill:rgb(88,88,88);">F<tspan x="288.247px 295.179px 301.949px 307.572px " y="323.06px 323.06px 323.06px 323.06px ">ONCT</tspan></text>
            <text x="312.835px" y="323.06px" style="font-family:'Calibri-Bold', 'Calibri', sans-serif;font-weight:700;font-size:9.216px;fill:rgb(88,88,88);">I<tspan x="315.97px " y="323.06px ">O</tspan></text>
            <text x="322.88px" y="323.06px" style="font-family:'Calibri-Bold', 'Calibri', sans-serif;font-weight:700;font-size:9.216px;fill:rgb(88,88,88);">N</text>
            <text x="332.46px" y="323.06px" style="font-family:'Calibri-Bold', 'Calibri', sans-serif;font-weight:700;font-size:9.216px;fill:rgb(88,88,88);">D<tspan x="338.974px " y="323.06px ">U</tspan></text>
            <text x="348.459px" y="323.06px" style="font-family:'Calibri-Bold', 'Calibri', sans-serif;font-weight:700;font-size:9.216px;fill:rgb(88,88,88);">N<tspan x="355.234px 362.171px 370.931px 376.802px 382.695px " y="323.06px 323.06px 323.06px 323.06px 323.06px ">OMBRE</tspan></text>
            <text x="390.714px" y="323.06px" style="font-family:'Calibri-Bold', 'Calibri', sans-serif;font-weight:700;font-size:9.216px;fill:rgb(88,88,88);">D<tspan x="397.229px " y="323.06px ">E</tspan></text>
            <text x="405.202px" y="323.06px" style="font-family:'Calibri-Bold', 'Calibri', sans-serif;font-weight:700;font-size:9.216px;fill:rgb(88,88,88);">V<tspan x="410.866px 417.155px 421.757px 426.957px 433.678px 439.481px " y="323.06px 323.06px 323.06px 323.06px 323.06px 323.06px ">ALEURS</tspan></text>
            <text x="183.26px" y="334.37px" style="font-family:'Calibri-Bold', 'Calibri', sans-serif;font-weight:700;font-size:9.24px;fill:rgb(88,88,88);">V<tspan x="188.928px 195.223px 199.826px 205.03px 211.758px 217.566px " y="334.37px 334.37px 334.37px 334.37px 334.37px 334.37px ">ALEURS</tspan></text>
            <text x="225.404px" y="334.37px" style="font-family:'Calibri-Bold', 'Calibri', sans-serif;font-weight:700;font-size:9.24px;fill:rgb(88,88,88);">P<tspan x="231.018px 236.916px 242.029px " y="334.37px 334.37px 334.37px ">RES</tspan></text>
            <text x="247.092px" y="334.37px" style="font-family:'Calibri-Bold', 'Calibri', sans-serif;font-weight:700;font-size:9.24px;fill:rgb(88,88,88);">Q</text>
            <text x="254.087px" y="334.37px" style="font-family:'Calibri-Bold', 'Calibri', sans-serif;font-weight:700;font-size:9.24px;fill:rgb(88,88,88);">U<tspan x="260.815px " y="334.37px ">E</tspan></text>
            <text x="268.795px" y="334.37px" style="font-family:'Calibri-Bold', 'Calibri', sans-serif;font-weight:700;font-size:9.24px;fill:rgb(88,88,88);">T<tspan x="274.065px " y="334.37px ">R</tspan></text>
            <text x="279.963px" y="334.37px" style="font-family:'Calibri-Bold', 'Calibri', sans-serif;font-weight:700;font-size:9.24px;fill:rgb(88,88,88);">I<tspan x="283.1px " y="334.37px ">É</tspan></text>
            <text x="288.279px" y="334.37px" style="font-family:'Calibri-Bold', 'Calibri', sans-serif;font-weight:700;font-size:9.24px;fill:rgb(88,88,88);">E<tspan x="293.395px " y="334.37px ">S</tspan></text>
            <text x="301.54px" y="334.37px" style="font-family:'Calibri-Bold', 'Calibri', sans-serif;font-weight:700;font-size:9.24px;fill:rgb(88,88,88);">-</text>
            <text x="307.492px" y="334.37px" style="font-family:'Calibri-Bold', 'Calibri', sans-serif;font-weight:700;font-size:9.24px;fill:rgb(88,88,88);">A<tspan x="313.778px 319.555px " y="334.37px 334.37px ">XE</tspan></text>
            <text x="327.873px" y="334.37px" style="font-family:'Calibri-Bold', 'Calibri', sans-serif;font-weight:700;font-size:9.24px;fill:rgb(88,88,88);">Y</text>
            <text x="336.18px" y="334.37px" style="font-family:'Calibri-Bold', 'Calibri', sans-serif;font-weight:700;font-size:9.24px;fill:rgb(88,88,88);">L<tspan x="340.612px 347.547px 354.122px 360.408px " y="334.37px 334.37px 334.37px 334.37px ">OGAR</tspan></text>
            <text x="366.298px" y="334.37px" style="font-family:'Calibri-Bold', 'Calibri', sans-serif;font-weight:700;font-size:9.24px;fill:rgb(88,88,88);">I<tspan x="369.424px 374.663px 381.155px 389.894px 393.021px " y="334.37px 334.37px 334.37px 334.37px 334.37px ">THMIQ</tspan></text>
            <text x="400.024px" y="334.37px" style="font-family:'Calibri-Bold', 'Calibri', sans-serif;font-weight:700;font-size:9.24px;fill:rgb(88,88,88);">U<tspan x="406.76px " y="334.37px ">E</tspan></text>
            <text x="217.75px" y="347.518px" style="font-family:'Calibri', sans-serif;font-size:5.208px;fill:rgb(88,88,88);">b</text>
            <text x="220.463px" y="347.518px" style="font-family:'Calibri', sans-serif;font-size:5.208px;fill:rgb(88,88,88);">u</text>
            <text x="223.244px" y="347.518px" style="font-family:'Calibri', sans-serif;font-size:5.208px;fill:rgb(88,88,88);">b</text>
            <text x="225.958px" y="347.518px" style="font-family:'Calibri', sans-serif;font-size:5.208px;fill:rgb(88,88,88);">b</text>
            <text x="228.739px" y="347.518px" style="font-family:'Calibri', sans-serif;font-size:5.208px;fill:rgb(88,88,88);">le</text>
        </g>
        <g>
            <text x="251.93px" y="347.52px" style="font-family:'Calibri', sans-serif;font-size:5.208px;fill:rgb(88,88,88);">i</text>
            <text x="253.107px" y="347.52px" style="font-family:'Calibri', sans-serif;font-size:5.208px;fill:rgb(88,88,88);">n</text>
            <text x="255.862px" y="347.52px" style="font-family:'Calibri', sans-serif;font-size:5.208px;fill:rgb(88,88,88);">sert</text>
        </g>
        <g>
            <text x="283.46px" y="347.52px" style="font-family:'Calibri', sans-serif;font-size:5.208px;fill:rgb(88,88,88);">s</text>
            <text x="285.475px" y="347.52px" style="font-family:'Calibri', sans-serif;font-size:5.208px;fill:rgb(88,88,88);">e</text>
            <text x="288.111px" y="347.52px" style="font-family:'Calibri', sans-serif;font-size:5.208px;fill:rgb(88,88,88);">le</text>
            <text x="291.855px" y="347.52px" style="font-family:'Calibri', sans-serif;font-size:5.208px;fill:rgb(88,88,88);">c</text>
            <path d="M296.465,345.102C296.515,345.102 296.55,345.113 296.569,345.136C296.587,345.159 296.597,345.192 296.597,345.236L296.597,347.456C296.597,347.47 296.593,347.481 296.587,347.491C296.58,347.5 296.568,347.508 296.552,347.515C296.536,347.522 296.515,347.527 296.487,347.53C296.46,347.534 296.427,347.535 296.388,347.535C296.346,347.535 296.311,347.534 296.284,347.53C296.257,347.527 296.235,347.522 296.219,347.515C296.203,347.508 296.192,347.5 296.185,347.491C296.178,347.481 296.175,347.47 296.175,347.456L296.175,345.45L294.992,345.45L294.992,346.727C294.992,346.884 295.015,347.003 295.062,347.084C295.109,347.164 295.192,347.205 295.313,347.205C295.352,347.205 295.386,347.201 295.417,347.193C295.447,347.186 295.474,347.178 295.498,347.169C295.522,347.161 295.542,347.153 295.559,347.145C295.576,347.137 295.591,347.133 295.605,347.133C295.613,347.133 295.622,347.136 295.629,347.14C295.637,347.144 295.643,347.152 295.647,347.164C295.651,347.176 295.655,347.192 295.658,347.212C295.662,347.233 295.664,347.258 295.664,347.289C295.664,347.338 295.66,347.376 295.653,347.404C295.647,347.432 295.636,347.453 295.623,347.468C295.609,347.482 295.589,347.495 295.562,347.507C295.535,347.519 295.504,347.529 295.469,347.537C295.434,347.544 295.397,347.551 295.358,347.556C295.319,347.561 295.28,347.563 295.241,347.563C295.123,347.563 295.021,347.548 294.936,347.516C294.851,347.485 294.782,347.437 294.728,347.374C294.673,347.31 294.634,347.23 294.609,347.132C294.585,347.035 294.573,346.92 294.573,346.788L294.573,345.45L294.252,345.45C294.227,345.45 294.206,345.436 294.191,345.409C294.176,345.382 294.168,345.338 294.168,345.277C294.168,345.245 294.17,345.218 294.175,345.196C294.179,345.174 294.184,345.155 294.191,345.141C294.198,345.127 294.207,345.116 294.218,345.111C294.229,345.105 294.241,345.102 294.255,345.102L294.573,345.102L294.573,344.557C294.573,344.546 294.576,344.535 294.581,344.524C294.587,344.514 294.598,344.505 294.615,344.498C294.631,344.49 294.652,344.485 294.679,344.481C294.706,344.478 294.74,344.476 294.781,344.476C294.823,344.476 294.858,344.478 294.885,344.481C294.912,344.485 294.934,344.49 294.949,344.498C294.964,344.505 294.975,344.514 294.982,344.524C294.989,344.535 294.992,344.546 294.992,344.557L294.992,345.102L296.465,345.102ZM296.645,344.395C296.645,344.493 296.626,344.56 296.589,344.596C296.552,344.631 296.483,344.649 296.383,344.649C296.285,344.649 296.217,344.632 296.181,344.597C296.145,344.562 296.126,344.496 296.126,344.4C296.126,344.301 296.145,344.234 296.182,344.199C296.22,344.163 296.288,344.145 296.388,344.145C296.487,344.145 296.554,344.163 296.59,344.198C296.627,344.232 296.645,344.298 296.645,344.395Z" style="fill:rgb(88,88,88);"/>
            <text x="296.969px" y="347.52px" style="font-family:'Calibri', sans-serif;font-size:5.208px;fill:rgb(88,88,88);">on</text>
        </g>
        <g>
            <text x="321.94px" y="347.52px" style="font-family:'Calibri', sans-serif;font-size:5.208px;fill:rgb(88,88,88);">std</text>
            <text x="328.466px" y="347.52px" style="font-family:'Calibri', sans-serif;font-size:5.208px;fill:rgb(88,88,88);">::</text>
            <text x="331.257px" y="347.52px" style="font-family:'Calibri', sans-serif;font-size:5.208px;fill:rgb(88,88,88);">s</text>
            <text x="333.267px" y="347.52px" style="font-family:'Calibri', sans-serif;font-size:5.208px;fill:rgb(88,88,88);">o</text>
            <text x="336.048px" y="347.52px" style="font-family:'Calibri', sans-serif;font-size:5.208px;fill:rgb(88,88,88);">rt</text>
        </g>
        <g>
            <text x="359.02px" y="347.52px" style="font-family:'Calibri', sans-serif;font-size:5.208px;fill:rgb(88,88,88);">st</text>
            <text x="362.765px" y="347.52px" style="font-family:'Calibri', sans-serif;font-size:5.208px;fill:rgb(88,88,88);">d::</text>
            <text x="368.311px" y="347.52px" style="font-family:'Calibri', sans-serif;font-size:5.208px;fill:rgb(88,88,88);">s</text>
            <text x="370.321px" y="347.52px" style="font-family:'Calibri', sans-serif;font-size:5.208px;fill:rgb(88,88,88);">t</text>
            <text x="372.118px" y="347.52px" style="font-family:'Calibri', sans-serif;font-size:5.208px;fill:rgb(88,88,88);">a</text>
            <text x="374.54px" y="347.52px" style="font-family:'Calibri', sans-serif;font-size:5.208px;fill:rgb(88,88,88);">b</text>
            <text x="377.295px" y="347.52px" style="font-family:'Calibri', sans-serif;font-size:5.208px;fill:rgb(88,88,88);">le</text>
            <text x="381.039px" y="347.52px" style="font-family:'Calibri', sans-serif;font-size:5.208px;fill:rgb(88,88,88);">_</text>
            <text x="383.675px" y="347.52px" style="font-family:'Calibri', sans-serif;font-size:5.208px;fill:rgb(88,88,88);">sort</text>
        </g>
        <g transform="matrix(1,0,0,1,0,-149.76)">
            <path d="M205.44,495.78L216.55,495.78" style="fill:none;fill-rule:nonzero;stroke:rgb(68,114,196);stroke-width:1.01px;stroke-linecap:round;"/>
        </g>
        <g transform="matrix(1,0,0,1,0,-149.87)">
            <path d="M212.4,497.29L209.49,494.38M210.95,494.38L210.95,497.29M209.49,497.29L212.4,494.38" style="fill:none;fill-rule:nonzero;stroke:rgb(68,114,196);stroke-width:0.43px;"/>
        </g>
        <g transform="matrix(1,0,0,1,0,-149.76)">
            <path d="M239.59,495.78L250.7,495.78" style="fill:none;fill-rule:nonzero;stroke:rgb(237,125,49);stroke-width:1.01px;stroke-linecap:round;"/>
        </g>
        <g transform="matrix(1,0,0,1,0,-149.87)">
            <path d="M246.56,497.29L243.65,494.38M245.1,494.38L245.1,497.29M243.65,497.29L246.56,494.38" style="fill:none;fill-rule:nonzero;stroke:rgb(237,125,49);stroke-width:0.43px;"/>
        </g>
        <g transform="matrix(1,0,0,1,0,-149.76)">
            <path d="M271.13,495.78L282.24,495.78" style="fill:none;fill-rule:nonzero;stroke:rgb(166,166,166);stroke-width:1.01px;stroke-linecap:round;"/>
        </g>
        <g transform="matrix(0,-1,-1,0,772.46,622.59)">
            <circle cx="276.625" cy="495.835" r="1.455" style="fill:rgb(166,166,166);stroke:rgb(166,166,166);stroke-width:0.43px;"/>
        </g>
        <g transform="matrix(1,0,0,1,0,-149.76)">
            <path d="M309.59,495.78L320.7,495.78" style="fill:none;fill-rule:nonzero;stroke:rgb(255,192,0);stroke-width:1.01px;stroke-linecap:round;"/>
        </g>
        <g transform="matrix(1,0,0,1,0,-149.87)">
            <path d="M316.55,497.29L313.63,494.38M315.09,494.38L315.09,497.29M313.63,497.29L316.55,494.38" style="fill:none;fill-rule:nonzero;stroke:rgb(255,192,0);stroke-width:0.43px;"/>
        </g>
        <g transform="matrix(1,0,0,1,0,-149.76)">
            <path d="M346.66,495.78L357.77,495.78" style="fill:none;fill-rule:nonzero;stroke:rgb(91,155,213);stroke-width:1.01px;stroke-linecap:round;"/>
        </g>
        <g transform="matrix(1,0,0,1,0,-149.87)">
            <path d="M353.62,497.29L350.71,494.38M352.16,494.38L352.16,497.29M350.71,497.29L353.62,494.38" style="fill:rgb(91,155,213);fill-rule:nonzero;stroke:rgb(91,155,213);stroke-width:0.43px;"/>
        </g>
        <g transform="matrix(1,0,0,1,0,40.74)">
            <rect x="50.734" y="269.12" width="493.91" height="262.82" style="fill:none;stroke:rgb(218,218,218);stroke-width:0.43px;"/>
        </g>
    </g>
</svg>
