<?xml version="1.0" encoding="UTF-8" standalone="no"?>
<!DOCTYPE svg PUBLIC "-//W3C//DTD SVG 1.1//EN" "http://www.w3.org/Graphics/SVG/1.1/DTD/svg11.dtd">
<svg width="100%" height="100%" viewBox="0 0 495 199" version="1.1" xmlns="http://www.w3.org/2000/svg" xmlns:xlink="http://www.w3.org/1999/xlink" xml:space="preserve" xmlns:serif="http://www.serif.com/" style="fill-rule:evenodd;clip-rule:evenodd;stroke-linejoin:round;stroke-miterlimit:10;">
    <g transform="matrix(1,0,0,1,-50.4186,-341.985)">
        <g>
            <clipPath id="_clip1">
                <rect x="50.4" y="341.88" width="494.4" height="198.6"/>
            </clipPath>
            <g clip-path="url(#_clip1)">
                <g transform="matrix(1,0,0,1,0,40.75)">
                    <rect x="50.594" y="301.41" width="494.01" height="198.23" style="fill:white;"/>
                </g>
                <g transform="matrix(1,0,0,1,0,35.34)">
                    <path d="M84.34,463.88L535.87,463.88M84.34,443.68L535.87,443.68M84.34,423.47L535.87,423.47M84.34,403.26L535.87,403.26M84.34,383L535.87,383M84.34,362.79L535.87,362.79M84.34,342.58L535.87,342.58" style="fill:none;fill-rule:nonzero;stroke:rgb(218,218,218);stroke-width:0.35px;"/>
                </g>
                <g transform="matrix(1,0,0,1,0,55.59)">
                    <path d="M234.85,322.33L234.85,463.88M385.34,322.33L385.34,463.88M535.87,322.33L535.87,463.88" style="fill:none;fill-rule:nonzero;stroke:rgb(218,218,218);stroke-width:0.35px;"/>
                </g>
                <g transform="matrix(0,-1,-1,0,477.445,533.035)">
                    <path d="M13.565,393.105L155.115,393.105" style="fill:none;fill-rule:nonzero;stroke:rgb(218,218,218);stroke-width:0.35px;"/>
                </g>
                <g transform="matrix(1,2.21469e-05,2.21469e-05,-1,-0.00713843,841.793)">
                    <path d="M84.34,322.325L535.87,322.325" style="fill:none;fill-rule:nonzero;stroke:rgb(218,218,218);stroke-width:0.35px;"/>
                </g>
                <g transform="matrix(1,0,0,1,0,197.14)">
                    <clipPath id="_clip2">
                        <rect x="84.311" y="180.73" width="451.85" height="141.95"/>
                    </clipPath>
                    <g clip-path="url(#_clip2)">
                        <path d="M84.34,322.33L535.87,322.33" style="fill:none;fill-rule:nonzero;stroke:rgb(68,114,196);stroke-width:0.82px;stroke-linecap:round;"/>
                    </g>
                </g>
                <g transform="matrix(1,0,0,1,0,197.15)">
                    <path d="M85.788,323.73L82.982,320.92M84.385,320.92L84.385,323.73M82.982,323.73L85.788,320.92" style="fill:none;fill-rule:nonzero;stroke:rgb(68,114,196);stroke-width:0.35px;"/>
                </g>
                <g transform="matrix(1,0,0,1,0,197.15)">
                    <path d="M236.27,323.73L233.47,320.92M234.87,320.92L234.87,323.73M233.47,323.73L236.27,320.92" style="fill:none;fill-rule:nonzero;stroke:rgb(68,114,196);stroke-width:0.35px;"/>
                </g>
                <g transform="matrix(1,0,0,1,0,197.15)">
                    <path d="M386.76,323.73L383.96,320.92M385.36,320.92L385.36,323.73M383.96,323.73L386.76,320.92" style="fill:none;fill-rule:nonzero;stroke:rgb(68,114,196);stroke-width:0.35px;"/>
                </g>
                <g transform="matrix(1,0,0,1,0,197.15)">
                    <path d="M537.3,323.73L534.5,320.92M535.9,320.92L535.9,323.73M534.5,323.73L537.3,320.92" style="fill:none;fill-rule:nonzero;stroke:rgb(68,114,196);stroke-width:0.35px;"/>
                </g>
                <g transform="matrix(1,0,0,1,0,176.91)">
                    <clipPath id="_clip3">
                        <rect x="84.311" y="200.96" width="451.85" height="141.95"/>
                    </clipPath>
                    <g clip-path="url(#_clip3)">
                        <path d="M84.34,342.55L234.85,342.35L385.34,340.56L535.87,322.34" style="fill:none;fill-rule:nonzero;stroke:rgb(237,125,49);stroke-width:0.82px;stroke-linecap:round;"/>
                    </g>
                </g>
                <g transform="matrix(1,0,0,1,0,197.04)">
                    <path d="M85.788,323.78L82.982,320.98M84.385,320.98L84.385,323.78M82.982,323.78L85.788,320.98" style="fill:none;fill-rule:nonzero;stroke:rgb(237,125,49);stroke-width:0.35px;"/>
                </g>
                <g transform="matrix(1,0,0,1,0,196.71)">
                    <path d="M236.27,323.95L233.47,321.14M234.87,321.14L234.87,323.95M233.47,323.95L236.27,321.14" style="fill:none;fill-rule:nonzero;stroke:rgb(237,125,49);stroke-width:0.35px;"/>
                </g>
                <g transform="matrix(1,0,0,1,0,193.11)">
                    <path d="M386.76,325.75L383.96,322.94M385.36,322.94L385.36,325.75M383.96,325.75L386.76,322.94" style="fill:none;fill-rule:nonzero;stroke:rgb(237,125,49);stroke-width:0.35px;"/>
                </g>
                <g transform="matrix(1,0,0,1,0,156.74)">
                    <path d="M537.3,343.93L534.5,341.13M535.9,341.13L535.9,343.93M534.5,343.93L537.3,341.13" style="fill:none;fill-rule:nonzero;stroke:rgb(237,125,49);stroke-width:0.35px;"/>
                </g>
                <g transform="matrix(1,0,0,1,0,176.9)">
                    <clipPath id="_clip4">
                        <rect x="84.311" y="200.97" width="451.85" height="141.95"/>
                    </clipPath>
                    <g clip-path="url(#_clip4)">
                        <path d="M84.34,342.55L234.85,342.36L385.34,340.57L535.87,322.35" style="fill:none;fill-rule:nonzero;stroke:rgb(166,166,166);stroke-width:0.82px;stroke-linecap:round;stroke-dasharray:1.64,1.64;"/>
                    </g>
                </g>
                <g transform="matrix(0,-1,-1,0,406.765,603.805)">
                    <ellipse cx="84.385" cy="322.38" rx="1.4" ry="1.403" style="fill:rgb(166,166,166);stroke:rgb(166,166,166);stroke-width:0.35px;"/>
                </g>
                <g transform="matrix(0,-1,-1,0,557.415,754.125)">
                    <ellipse cx="234.87" cy="322.545" rx="1.405" ry="1.4" style="fill:rgb(166,166,166);stroke:rgb(166,166,166);stroke-width:0.35px;"/>
                </g>
                <g transform="matrix(0,-1,-1,0,709.705,902.815)">
                    <ellipse cx="385.36" cy="324.345" rx="1.405" ry="1.4" style="fill:rgb(166,166,166);stroke:rgb(166,166,166);stroke-width:0.35px;"/>
                </g>
                <g transform="matrix(0,-1,-1,0,878.485,1035.12)">
                    <ellipse cx="535.9" cy="342.585" rx="1.405" ry="1.4" style="fill:rgb(166,166,166);stroke:rgb(166,166,166);stroke-width:0.35px;"/>
                </g>
                <g transform="matrix(1,0,0,1,0,161.87)">
                    <clipPath id="_clip5">
                        <rect x="84.311" y="216" width="451.85" height="141.95"/>
                    </clipPath>
                    <g clip-path="url(#_clip5)">
                        <path d="M84.34,357.59L234.85,357.28L385.34,354.31L535.87,322.34" style="fill:none;fill-rule:nonzero;stroke:rgb(255,192,0);stroke-width:0.82px;stroke-linecap:round;"/>
                    </g>
                </g>
                <g transform="matrix(1,0,0,1,0,197.04)">
                    <path d="M85.788,323.78L82.982,320.98M84.385,320.98L84.385,323.78M82.982,323.78L85.788,320.98" style="fill:none;fill-rule:nonzero;stroke:rgb(255,192,0);stroke-width:0.35px;"/>
                </g>
                <g transform="matrix(1,0,0,1,0,196.48)">
                    <path d="M236.27,324.06L233.47,321.26M234.87,321.26L234.87,324.06M233.47,324.06L236.27,321.26" style="fill:none;fill-rule:nonzero;stroke:rgb(255,192,0);stroke-width:0.35px;"/>
                </g>
                <g transform="matrix(1,0,0,1,0,190.53)">
                    <path d="M386.76,327.04L383.96,324.23M385.36,324.23L385.36,327.04M383.96,327.04L386.76,324.23" style="fill:none;fill-rule:nonzero;stroke:rgb(255,192,0);stroke-width:0.35px;"/>
                </g>
                <g transform="matrix(1,0,0,1,0,126.65)">
                    <path d="M537.3,358.98L534.5,356.17M535.9,356.17L535.9,358.98M534.5,358.98L537.3,356.17" style="fill:none;fill-rule:nonzero;stroke:rgb(255,192,0);stroke-width:0.35px;"/>
                </g>
                <g transform="matrix(1,0,0,1,0,58.45)">
                    <clipPath id="_clip6">
                        <rect x="84.311" y="319.42" width="451.85" height="141.95"/>
                    </clipPath>
                    <g clip-path="url(#_clip6)">
                        <path d="M84.34,460.99L234.85,460.25L385.34,449.19L535.87,322.36" style="fill:none;fill-rule:nonzero;stroke:rgb(91,155,213);stroke-width:0.82px;stroke-linecap:round;"/>
                    </g>
                </g>
                <g transform="matrix(1,0,0,1,0,197.04)">
                    <path d="M85.788,323.78L82.982,320.98M84.385,320.98L84.385,323.78M82.982,323.78L85.788,320.98" style="fill:rgb(91,155,213);fill-rule:nonzero;stroke:rgb(91,155,213);stroke-width:0.35px;"/>
                </g>
                <g transform="matrix(1,0,0,1,0,195.59)">
                    <path d="M236.27,324.51L233.47,321.7M234.87,321.7L234.87,324.51M233.47,324.51L236.27,321.7" style="fill:rgb(91,155,213);fill-rule:nonzero;stroke:rgb(91,155,213);stroke-width:0.35px;"/>
                </g>
                <g transform="matrix(1,0,0,1,0,173.47)">
                    <path d="M386.76,335.57L383.96,332.76M385.36,332.76L385.36,335.57M383.96,335.57L386.76,332.76" style="fill:rgb(91,155,213);fill-rule:nonzero;stroke:rgb(91,155,213);stroke-width:0.35px;"/>
                </g>
                <g transform="matrix(1,0,0,1,0,-80.24)">
                    <path d="M537.3,462.42L534.5,459.62M535.9,459.62L535.9,462.42M534.5,462.42L537.3,459.62" style="fill:rgb(91,155,213);fill-rule:nonzero;stroke:rgb(91,155,213);stroke-width:0.35px;"/>
                </g>
                <g transform="matrix(1,0,0,1,0,-99.0134)">
                    <rect x="217.07" y="466.46" width="161.06" height="7.893" style="fill:none;stroke:rgb(166,166,166);stroke-width:0.35px;"/>
                </g>
                <g transform="matrix(1,0,0,1,0,-99.02)">
                    <path d="M223.02,470.41L232,470.41" style="fill:none;fill-rule:nonzero;stroke:rgb(68,114,196);stroke-width:0.82px;stroke-linecap:round;"/>
                </g>
                <g transform="matrix(1,0,0,1,0,-99.08)">
                    <path d="M228.68,471.62L226.32,469.26M227.5,469.26L227.5,471.62M226.32,471.62L228.68,469.26" style="fill:none;fill-rule:nonzero;stroke:rgb(68,114,196);stroke-width:0.35px;"/>
                </g>
                <text x="78.312px" y="520.73px" style="font-family:'Calibri', sans-serif;font-size:4.2px;fill:rgb(88,88,88);">0</text>
                <text x="69.768px" y="500.5px" style="font-family:'Calibri', sans-serif;font-size:4.2px;fill:rgb(88,88,88);">20000</text>
                <text x="69.768px" y="480.26px" style="font-family:'Calibri', sans-serif;font-size:4.224px;fill:rgb(88,88,88);">40000</text>
                <text x="69.768px" y="460.06px" style="font-family:'Calibri', sans-serif;font-size:4.2px;fill:rgb(88,88,88);">60000</text>
                <text x="69.768px" y="439.82px" style="font-family:'Calibri', sans-serif;font-size:4.2px;fill:rgb(88,88,88);">80000</text>
                <text x="67.632px" y="419.59px" style="font-family:'Calibri', sans-serif;font-size:4.224px;fill:rgb(88,88,88);">100000</text>
                <text x="67.632px" y="399.36px" style="font-family:'Calibri', sans-serif;font-size:4.224px;fill:rgb(88,88,88);">120000</text>
                <text x="67.632px" y="379.15px" style="font-family:'Calibri', sans-serif;font-size:4.2px;fill:rgb(88,88,88);">140000</text>
                <text x="81.624px" y="526.2px" style="font-family:'Calibri', sans-serif;font-size:4.2px;fill:rgb(88,88,88);">1<tspan x="84.312px " y="526.2px ">0</tspan></text>
                <text x="230.83px" y="526.2px" style="font-family:'Calibri', sans-serif;font-size:4.2px;fill:rgb(88,88,88);">1<tspan x="233.518px 236.207px " y="526.2px 526.2px ">00</tspan></text>
                <text x="380.02px" y="526.2px" style="font-family:'Calibri', sans-serif;font-size:4.2px;fill:rgb(88,88,88);">1<tspan x="382.708px 385.397px 388.085px " y="526.2px 526.2px 526.2px ">000</tspan></text>
                <text x="529.2px" y="526.2px" style="font-family:'Calibri', sans-serif;font-size:4.2px;fill:rgb(88,88,88);">1<tspan x="531.912px 534.625px 537.337px 540.05px " y="526.2px 526.2px 526.2px 526.2px ">0000</tspan></text>
                <g transform="matrix(-4.4e-08,-1,1,-4.4e-08,0,0)">
                    <text x="-471.7px" y="65.088px" style="font-family:'Calibri', sans-serif;font-size:4.2px;fill:rgb(88,88,88);">N</text>
                    <text x="-469.012px" y="65.088px" style="font-family:'Calibri', sans-serif;font-size:4.2px;fill:rgb(88,88,88);">O</text>
                    <text x="-466.206px" y="65.088px" style="font-family:'Calibri', sans-serif;font-size:4.2px;fill:rgb(88,88,88);">M</text>
                    <text x="-462.615px" y="65.088px" style="font-family:'Calibri', sans-serif;font-size:4.2px;fill:rgb(88,88,88);">BR</text>
                    <text x="-458.004px" y="65.088px" style="font-family:'Calibri', sans-serif;font-size:4.2px;fill:rgb(88,88,88);">E D</text>
                    <text x="-452.371px" y="65.088px" style="font-family:'Calibri', sans-serif;font-size:4.2px;fill:rgb(88,88,88);">&apos;</text>
                    <text x="-451.405px" y="65.088px" style="font-family:'Calibri', sans-serif;font-size:4.2px;fill:rgb(88,88,88);">AFF</text>
                    <text x="-445.134px" y="65.088px" style="font-family:'Calibri', sans-serif;font-size:4.2px;fill:rgb(88,88,88);">ECT</text>
                    <text x="-438.725px" y="65.088px" style="font-family:'Calibri', sans-serif;font-size:4.2px;fill:rgb(88,88,88);">A</text>
                    <text x="-436.293px" y="65.088px" style="font-family:'Calibri', sans-serif;font-size:4.2px;fill:rgb(88,88,88);">TIO</text>
                    <text x="-430.337px" y="65.088px" style="font-family:'Calibri', sans-serif;font-size:4.2px;fill:rgb(88,88,88);">NS</text>
                </g>
                <g>
                    <text x="291.22px" y="532.73px" style="font-family:'Calibri', sans-serif;font-size:4.224px;fill:rgb(88,88,88);">N</text>
                    <text x="293.906px" y="532.73px" style="font-family:'Calibri', sans-serif;font-size:4.224px;fill:rgb(88,88,88);">OMBRE DE</text>
                    <text x="313.645px" y="532.73px" style="font-family:'Calibri', sans-serif;font-size:4.224px;fill:rgb(88,88,88);">V</text>
                    <text x="316.069px" y="532.73px" style="font-family:'Calibri', sans-serif;font-size:4.224px;fill:rgb(88,88,88);">A</text>
                    <text x="318.494px" y="532.73px" style="font-family:'Calibri', sans-serif;font-size:4.224px;fill:rgb(88,88,88);">LE</text>
                    <text x="322.372px" y="532.73px" style="font-family:'Calibri', sans-serif;font-size:4.224px;fill:rgb(88,88,88);">U</text>
                    <text x="325.058px" y="532.73px" style="font-family:'Calibri', sans-serif;font-size:4.224px;fill:rgb(88,88,88);">RS</text>
                </g>
                <g>
                    <text x="178.32px" y="352.85px" style="font-family:'Calibri-Bold', 'Calibri', sans-serif;font-weight:700;font-size:7.464px;fill:rgb(88,88,88);">N</text>
                    <text x="183.836px" y="352.85px" style="font-family:'Calibri-Bold', 'Calibri', sans-serif;font-weight:700;font-size:7.464px;fill:rgb(88,88,88);">O<tspan x="189.449px 196.537px 201.286px 206.053px " y="352.85px 352.85px 352.85px 352.85px ">MBRE</tspan></text>
                    <text x="212.572px" y="352.85px" style="font-family:'Calibri-Bold', 'Calibri', sans-serif;font-weight:700;font-size:7.464px;fill:rgb(88,88,88);">D<tspan x="217.842px 220.149px 225.237px 229.228px 233.219px 237.316px " y="352.85px 352.85px 352.85px 352.85px 352.85px 352.85px ">&apos;AFFEC</tspan></text>
                    <text x="241.868px" y="352.85px" style="font-family:'Calibri-Bold', 'Calibri', sans-serif;font-weight:700;font-size:7.464px;fill:rgb(88,88,88);">TA<tspan x="250.103px " y="352.85px ">T</tspan></text>
                    <text x="254.392px" y="352.85px" style="font-family:'Calibri-Bold', 'Calibri', sans-serif;font-weight:700;font-size:7.464px;fill:rgb(88,88,88);">I<tspan x="256.935px " y="352.85px ">O</tspan></text>
                    <text x="262.536px" y="352.85px" style="font-family:'Calibri-Bold', 'Calibri', sans-serif;font-weight:700;font-size:7.464px;fill:rgb(88,88,88);">N<tspan x="268.038px " y="352.85px ">S</tspan></text>
                    <text x="274.382px" y="352.85px" style="font-family:'Calibri-Bold', 'Calibri', sans-serif;font-weight:700;font-size:7.464px;fill:rgb(88,88,88);">E<tspan x="278.609px " y="352.85px ">N</tspan></text>
                    <text x="286.361px" y="352.85px" style="font-family:'Calibri-Bold', 'Calibri', sans-serif;font-weight:700;font-size:7.464px;fill:rgb(88,88,88);">F<tspan x="290.289px " y="352.85px ">O</tspan></text>
                    <text x="295.893px" y="352.85px" style="font-family:'Calibri-Bold', 'Calibri', sans-serif;font-weight:700;font-size:7.464px;fill:rgb(88,88,88);">N<tspan x="301.387px 305.951px " y="352.85px 352.85px ">CT</tspan></text>
                    <text x="310.224px" y="352.85px" style="font-family:'Calibri-Bold', 'Calibri', sans-serif;font-weight:700;font-size:7.464px;fill:rgb(88,88,88);">I<tspan x="312.767px " y="352.85px ">O</tspan></text>
                    <text x="318.367px" y="352.85px" style="font-family:'Calibri-Bold', 'Calibri', sans-serif;font-weight:700;font-size:7.464px;fill:rgb(88,88,88);">N</text>
                    <text x="326.182px" y="352.85px" style="font-family:'Calibri-Bold', 'Calibri', sans-serif;font-weight:700;font-size:7.464px;fill:rgb(88,88,88);">D<tspan x="331.47px " y="352.85px ">U</tspan></text>
                    <text x="339.139px" y="352.85px" style="font-family:'Calibri-Bold', 'Calibri', sans-serif;font-weight:700;font-size:7.464px;fill:rgb(88,88,88);">N</text>
                    <text x="344.639px" y="352.85px" style="font-family:'Calibri-Bold', 'Calibri', sans-serif;font-weight:700;font-size:7.464px;fill:rgb(88,88,88);">O<tspan x="350.258px 357.353px 362.109px 366.882px " y="352.85px 352.85px 352.85px 352.85px ">MBRE</tspan></text>
                    <text x="373.392px" y="352.85px" style="font-family:'Calibri-Bold', 'Calibri', sans-serif;font-weight:700;font-size:7.464px;fill:rgb(88,88,88);">D<tspan x="378.668px " y="352.85px ">E</tspan></text>
                    <text x="385.125px" y="352.85px" style="font-family:'Calibri-Bold', 'Calibri', sans-serif;font-weight:700;font-size:7.464px;fill:rgb(88,88,88);">V<tspan x="389.713px 394.807px 398.535px 402.747px 408.192px 412.893px " y="352.85px 352.85px 352.85px 352.85px 352.85px 352.85px ">ALEURS</tspan></text>
                    <text x="225.98px" y="361.994px" style="font-family:'Calibri-Bold', 'Calibri', sans-serif;font-weight:700;font-size:7.464px;fill:rgb(88,88,88);">V<tspan x="230.57px 235.666px 239.395px 243.61px 249.056px 253.758px " y="361.994px 361.994px 361.994px 361.994px 361.994px 361.994px ">ALEURS</tspan></text>
                    <text x="260.113px" y="361.994px" style="font-family:'Calibri-Bold', 'Calibri', sans-serif;font-weight:700;font-size:7.464px;fill:rgb(88,88,88);">C<tspan x="264.637px 269.339px 274.96px 277.524px 281.625px 285.635px 290.731px 296.221px 300.49px 304.631px " y="361.994px 361.994px 361.994px 361.994px 361.994px 361.994px 361.994px 361.994px 361.994px 361.994px ">ROISSANTES</tspan></text>
                    <text x="310.99px" y="361.994px" style="font-family:'Calibri-Bold', 'Calibri', sans-serif;font-weight:700;font-size:7.464px;fill:rgb(88,88,88);">-</text>
                    <text x="315.809px" y="361.994px" style="font-family:'Calibri-Bold', 'Calibri', sans-serif;font-weight:700;font-size:7.464px;fill:rgb(88,88,88);">A</text>
                    <text x="320.915px" y="361.994px" style="font-family:'Calibri-Bold', 'Calibri', sans-serif;font-weight:700;font-size:7.464px;fill:rgb(88,88,88);">X<tspan x="325.575px " y="361.994px ">E</tspan></text>
                    <text x="332.372px" y="361.994px" style="font-family:'Calibri-Bold', 'Calibri', sans-serif;font-weight:700;font-size:7.464px;fill:rgb(88,88,88);">Y</text>
                    <text x="339.052px" y="361.994px" style="font-family:'Calibri-Bold', 'Calibri', sans-serif;font-weight:700;font-size:7.464px;fill:rgb(88,88,88);">L<tspan x="342.757px 345.297px 350.762px " y="361.994px 361.994px 361.994px ">INÉ</tspan></text>
                    <text x="354.861px" y="361.994px" style="font-family:'Calibri-Bold', 'Calibri', sans-serif;font-weight:700;font-size:7.464px;fill:rgb(88,88,88);">A</text>
                    <text x="359.967px" y="361.994px" style="font-family:'Calibri-Bold', 'Calibri', sans-serif;font-weight:700;font-size:7.464px;fill:rgb(88,88,88);">I</text>
                    <text x="362.482px" y="361.994px" style="font-family:'Calibri-Bold', 'Calibri', sans-serif;font-weight:700;font-size:7.464px;fill:rgb(88,88,88);">R<tspan x="367.252px " y="361.994px ">E</tspan></text>
                    <text x="232.99px" y="372.624px" style="font-family:'Calibri', sans-serif;font-size:4.2px;fill:rgb(88,88,88);">b</text>
                    <text x="235.174px" y="372.624px" style="font-family:'Calibri', sans-serif;font-size:4.2px;fill:rgb(88,88,88);">u</text>
                    <text x="237.4px" y="372.624px" style="font-family:'Calibri', sans-serif;font-size:4.2px;fill:rgb(88,88,88);">b</text>
                    <text x="239.584px" y="372.624px" style="font-family:'Calibri', sans-serif;font-size:4.2px;fill:rgb(88,88,88);">ble</text>
                </g>
                <g>
                    <text x="260.62px" y="372.62px" style="font-family:'Calibri', sans-serif;font-size:4.2px;fill:rgb(88,88,88);">i</text>
                    <text x="261.557px" y="372.62px" style="font-family:'Calibri', sans-serif;font-size:4.2px;fill:rgb(88,88,88);">n</text>
                    <text x="263.783px" y="372.62px" style="font-family:'Calibri', sans-serif;font-size:4.2px;fill:rgb(88,88,88);">sert</text>
                </g>
                <g>
                    <text x="286.1px" y="372.62px" style="font-family:'Calibri', sans-serif;font-size:4.2px;fill:rgb(88,88,88);">s</text>
                    <text x="287.742px" y="372.62px" style="font-family:'Calibri', sans-serif;font-size:4.2px;fill:rgb(88,88,88);">e</text>
                    <path d="M296.622,370.67C296.663,370.67 296.691,370.679 296.706,370.697C296.721,370.716 296.728,370.743 296.728,370.778L296.728,372.569C296.728,372.58 296.725,372.589 296.72,372.596C296.714,372.604 296.705,372.61 296.692,372.616C296.679,372.621 296.662,372.625 296.64,372.628C296.618,372.631 296.591,372.632 296.56,372.632C296.526,372.632 296.498,372.631 296.476,372.628C296.454,372.625 296.437,372.621 296.424,372.616C296.411,372.61 296.401,372.604 296.396,372.596C296.39,372.589 296.388,372.58 296.388,372.569L296.388,370.951L295.434,370.951L295.434,371.98C295.434,372.107 295.453,372.203 295.49,372.268C295.528,372.333 295.595,372.366 295.693,372.366C295.724,372.366 295.752,372.363 295.777,372.356C295.801,372.35 295.823,372.344 295.842,372.337C295.861,372.33 295.878,372.324 295.891,372.318C295.905,372.311 295.917,372.308 295.928,372.308C295.935,372.308 295.942,372.31 295.948,372.313C295.954,372.317 295.959,372.323 295.962,372.333C295.966,372.342 295.969,372.355 295.971,372.372C295.974,372.388 295.976,372.409 295.976,372.433C295.976,372.473 295.973,372.504 295.967,372.527C295.962,372.549 295.954,372.566 295.943,372.578C295.932,372.59 295.915,372.6 295.893,372.61C295.872,372.619 295.847,372.627 295.819,372.633C295.791,372.639 295.761,372.645 295.729,372.649C295.698,372.653 295.667,372.655 295.635,372.655C295.539,372.655 295.457,372.642 295.389,372.617C295.321,372.592 295.265,372.553 295.221,372.502C295.177,372.451 295.145,372.386 295.125,372.307C295.106,372.229 295.096,372.136 295.096,372.029L295.096,370.951L294.837,370.951C294.817,370.951 294.8,370.94 294.788,370.918C294.776,370.896 294.77,370.86 294.77,370.811C294.77,370.785 294.771,370.763 294.775,370.746C294.778,370.728 294.783,370.713 294.788,370.701C294.794,370.69 294.801,370.682 294.81,370.677C294.819,370.672 294.828,370.67 294.839,370.67L295.096,370.67L295.096,370.231C295.096,370.221 295.098,370.212 295.103,370.204C295.108,370.196 295.117,370.189 295.13,370.183C295.143,370.176 295.16,370.172 295.182,370.169C295.204,370.167 295.231,370.165 295.264,370.165C295.298,370.165 295.326,370.167 295.348,370.169C295.37,370.172 295.387,370.176 295.399,370.183C295.412,370.189 295.42,370.196 295.426,370.204C295.431,370.212 295.434,370.221 295.434,370.231L295.434,370.67L296.622,370.67ZM296.767,370.1C296.767,370.179 296.752,370.233 296.722,370.262C296.692,370.29 296.637,370.305 296.556,370.305C296.477,370.305 296.422,370.291 296.393,370.263C296.363,370.235 296.349,370.182 296.349,370.104C296.349,370.024 296.364,369.97 296.394,369.942C296.424,369.913 296.479,369.899 296.56,369.899C296.639,369.899 296.694,369.913 296.723,369.941C296.752,369.969 296.767,370.022 296.767,370.1Z" style="fill:rgb(88,88,88);"/>
                    <text x="289.863px" y="372.62px" style="font-family:'Calibri', sans-serif;font-size:4.2px;fill:rgb(88,88,88);">lec</text>
                    <text x="297.045px" y="372.62px" style="font-family:'Calibri', sans-serif;font-size:4.2px;fill:rgb(88,88,88);">on</text>
                </g>
                <g>
                    <text x="317.21px" y="372.62px" style="font-family:'Calibri', sans-serif;font-size:4.2px;fill:rgb(88,88,88);">st</text>
                    <text x="320.259px" y="372.62px" style="font-family:'Calibri', sans-serif;font-size:4.2px;fill:rgb(88,88,88);">d</text>
                    <text x="322.51px" y="372.62px" style="font-family:'Calibri', sans-serif;font-size:4.2px;fill:rgb(88,88,88);">::s</text>
                    <text x="326.404px" y="372.62px" style="font-family:'Calibri', sans-serif;font-size:4.2px;fill:rgb(88,88,88);">o</text>
                    <text x="328.651px" y="372.62px" style="font-family:'Calibri', sans-serif;font-size:4.2px;fill:rgb(88,88,88);">rt</text>
                </g>
                <g>
                    <text x="347.18px" y="372.62px" style="font-family:'Calibri', sans-serif;font-size:4.2px;fill:rgb(88,88,88);">st</text>
                    <text x="350.229px" y="372.62px" style="font-family:'Calibri', sans-serif;font-size:4.2px;fill:rgb(88,88,88);">d</text>
                    <text x="352.48px" y="372.62px" style="font-family:'Calibri', sans-serif;font-size:4.2px;fill:rgb(88,88,88);">::s</text>
                    <text x="356.374px" y="372.62px" style="font-family:'Calibri', sans-serif;font-size:4.2px;fill:rgb(88,88,88);">t</text>
                    <text x="357.827px" y="372.62px" style="font-family:'Calibri', sans-serif;font-size:4.2px;fill:rgb(88,88,88);">a</text>
                    <text x="359.797px" y="372.62px" style="font-family:'Calibri', sans-serif;font-size:4.2px;fill:rgb(88,88,88);">b</text>
                    <text x="362.048px" y="372.62px" style="font-family:'Calibri', sans-serif;font-size:4.2px;fill:rgb(88,88,88);">le</text>
                    <text x="365.106px" y="372.62px" style="font-family:'Calibri', sans-serif;font-size:4.2px;fill:rgb(88,88,88);">_</text>
                    <text x="367.227px" y="372.62px" style="font-family:'Calibri', sans-serif;font-size:4.2px;fill:rgb(88,88,88);">s</text>
                    <text x="368.869px" y="372.62px" style="font-family:'Calibri', sans-serif;font-size:4.2px;fill:rgb(88,88,88);">o</text>
                    <text x="371.112px" y="372.62px" style="font-family:'Calibri', sans-serif;font-size:4.2px;fill:rgb(88,88,88);">rt</text>
                </g>
                <g transform="matrix(1,0,0,1,0,-99.02)">
                    <path d="M250.63,470.41L259.61,470.41" style="fill:none;fill-rule:nonzero;stroke:rgb(237,125,49);stroke-width:0.82px;stroke-linecap:round;"/>
                </g>
                <g transform="matrix(1,0,0,1,0,-99.08)">
                    <path d="M256.3,471.62L253.94,469.26M255.12,469.26L255.12,471.62M253.94,471.62L256.3,469.26" style="fill:none;fill-rule:nonzero;stroke:rgb(237,125,49);stroke-width:0.35px;"/>
                </g>
                <g transform="matrix(1,0,0,1,0,-99.02)">
                    <path d="M276.13,470.41L285.11,470.41" style="fill:none;fill-rule:nonzero;stroke:rgb(166,166,166);stroke-width:0.82px;stroke-linecap:round;stroke-dasharray:1.64,1.64;"/>
                </g>
                <g transform="matrix(0,-1,-1,0,751.04,651.96)">
                    <circle cx="280.6" cy="470.44" r="1.18" style="fill:rgb(166,166,166);stroke:rgb(166,166,166);stroke-width:0.35px;"/>
                </g>
                <g transform="matrix(1,0,0,1,0,-99.02)">
                    <path d="M307.22,470.41L316.2,470.41" style="fill:none;fill-rule:nonzero;stroke:rgb(255,192,0);stroke-width:0.82px;stroke-linecap:round;"/>
                </g>
                <g transform="matrix(1,0,0,1,0,-99.08)">
                    <path d="M312.88,471.62L310.52,469.26M311.7,469.26L311.7,471.62M310.52,471.62L312.88,469.26" style="fill:none;fill-rule:nonzero;stroke:rgb(255,192,0);stroke-width:0.35px;"/>
                </g>
                <g transform="matrix(1,0,0,1,0,-99.02)">
                    <path d="M337.19,470.41L346.17,470.41" style="fill:none;fill-rule:nonzero;stroke:rgb(91,155,213);stroke-width:0.82px;stroke-linecap:round;"/>
                </g>
                <g transform="matrix(1,0,0,1,0,-99.08)">
                    <path d="M342.85,471.62L340.49,469.26M341.67,469.26L341.67,471.62M340.49,471.62L342.85,469.26" style="fill:rgb(91,155,213);fill-rule:nonzero;stroke:rgb(91,155,213);stroke-width:0.35px;"/>
                </g>
                <g transform="matrix(1,0,0,1,0,40.75)">
                    <rect x="50.594" y="301.41" width="494.01" height="198.23" style="fill:none;stroke:rgb(218,218,218);stroke-width:0.35px;"/>
                </g>
            </g>
        </g>
    </g>
</svg>
