<?xml version="1.0" encoding="UTF-8" standalone="no"?>
<!DOCTYPE svg PUBLIC "-//W3C//DTD SVG 1.1//EN" "http://www.w3.org/Graphics/SVG/1.1/DTD/svg11.dtd">
<svg width="100%" height="100%" viewBox="0 0 495 264" version="1.1" xmlns="http://www.w3.org/2000/svg" xmlns:xlink="http://www.w3.org/1999/xlink" xml:space="preserve" xmlns:serif="http://www.serif.com/" style="fill-rule:evenodd;clip-rule:evenodd;stroke-linejoin:round;stroke-miterlimit:10;">
    <g transform="matrix(1,0,0,1,-50.46,-309.683)">
        <g>
            <clipPath id="_clip1">
                <rect x="50.4" y="309.6" width="494.4" height="263.28"/>
            </clipPath>
            <g clip-path="url(#_clip1)">
                <g transform="matrix(1,0,0,1,0,40.86)">
                    <rect x="50.677" y="269.04" width="493.91" height="262.86" style="fill:white;"/>
                </g>
                <g transform="matrix(1,0,0,1,0,46.16)">
                    <path d="M87.838,480.84L531.63,480.84M87.838,460.08L531.63,460.08M87.838,439.31L531.63,439.31M87.838,418.55L531.63,418.55M87.838,397.86L531.63,397.86M87.838,377.1L531.63,377.1M87.838,356.34L531.63,356.34M87.838,335.57L531.63,335.57M87.838,314.8L531.63,314.8" style="fill:none;fill-rule:nonzero;stroke:rgb(218,218,218);stroke-width:0.43px;"/>
                </g>
                <g transform="matrix(1,0,0,1,0,63.28)">
                    <path d="M235.78,294.03L235.78,484.49M383.69,294.03L383.69,484.49M531.63,294.03L531.63,484.49" style="fill:none;fill-rule:nonzero;stroke:rgb(218,218,218);stroke-width:0.43px;"/>
                </g>
                <g transform="matrix(0,-1,-1,0,477.098,540.378)">
                    <path d="M-7.392,389.26L183.068,389.26" style="fill:none;fill-rule:nonzero;stroke:rgb(218,218,218);stroke-width:0.43px;"/>
                </g>
                <g transform="matrix(1,0,0,1,0,253.74)">
                    <path d="M87.838,294.03L531.63,294.03" style="fill:none;fill-rule:nonzero;stroke:rgb(218,218,218);stroke-width:0.43px;"/>
                </g>
                <g transform="matrix(1,0,0,1,0,39.81)">
                    <clipPath id="_clip2">
                        <rect x="87.811" y="317.48" width="444.2" height="190.89"/>
                    </clipPath>
                    <g clip-path="url(#_clip2)">
                        <path d="M87.838,463.74L235.78,421.36L383.69,379.77L531.63,338.25" style="fill:none;fill-rule:nonzero;stroke:rgb(68,114,196);stroke-width:1.01px;stroke-linecap:round;"/>
                    </g>
                </g>
                <g transform="matrix(1,0,0,1,0,165.31)">
                    <path d="M89.562,339.98L86.09,336.51M87.826,336.51L87.826,339.98M86.09,339.98L89.562,336.51" style="fill:none;fill-rule:nonzero;stroke:rgb(68,114,196);stroke-width:0.43px;"/>
                </g>
                <g transform="matrix(1,0,0,1,0,80.6)">
                    <path d="M237.54,382.34L234.06,378.86M235.8,378.86L235.8,382.34M234.06,382.34L237.54,378.86" style="fill:none;fill-rule:nonzero;stroke:rgb(68,114,196);stroke-width:0.43px;"/>
                </g>
                <g transform="matrix(1,0,0,1,0,-2.59)">
                    <path d="M385.44,423.93L381.97,420.46M383.7,420.46L383.7,423.93M381.97,423.93L385.44,420.46" style="fill:none;fill-rule:nonzero;stroke:rgb(68,114,196);stroke-width:0.43px;"/>
                </g>
                <g transform="matrix(1,0,0,1,0,-85.63)">
                    <path d="M533.41,465.45L529.94,461.98M531.68,461.98L531.68,465.45M529.94,465.45L533.41,461.98" style="fill:none;fill-rule:nonzero;stroke:rgb(68,114,196);stroke-width:0.43px;"/>
                </g>
                <g transform="matrix(1,0,0,1,0,137.92)">
                    <clipPath id="_clip3">
                        <rect x="87.811" y="219.37" width="444.2" height="190.89"/>
                    </clipPath>
                    <g clip-path="url(#_clip3)">
                        <path d="M87.838,383.31L235.78,362.14L383.69,341.31L531.63,320.57" style="fill:none;fill-rule:nonzero;stroke:rgb(237,125,49);stroke-width:1.01px;stroke-linecap:round;"/>
                    </g>
                </g>
                <g transform="matrix(1,0,0,1,0,200.73)">
                    <path d="M89.562,322.27L86.09,318.8M87.826,318.8L87.826,322.27M86.09,322.27L89.562,318.8" style="fill:none;fill-rule:nonzero;stroke:rgb(237,125,49);stroke-width:0.43px;"/>
                </g>
                <g transform="matrix(1,0,0,1,0,158.37)">
                    <path d="M237.54,343.45L234.06,339.98M235.8,339.98L235.8,343.45M234.06,343.45L237.54,339.98" style="fill:none;fill-rule:nonzero;stroke:rgb(237,125,49);stroke-width:0.43px;"/>
                </g>
                <g transform="matrix(1,0,0,1,0,116.71)">
                    <path d="M385.44,364.28L381.97,360.81M383.7,360.81L383.7,364.28M381.97,364.28L385.44,360.81" style="fill:none;fill-rule:nonzero;stroke:rgb(237,125,49);stroke-width:0.43px;"/>
                </g>
                <g transform="matrix(1,0,0,1,0,75.19)">
                    <path d="M533.41,385.04L529.94,381.57M531.68,381.57L531.68,385.04M529.94,385.04L533.41,381.57" style="fill:none;fill-rule:nonzero;stroke:rgb(237,125,49);stroke-width:0.43px;"/>
                </g>
                <g transform="matrix(1,0,0,1,0,137.45)">
                    <clipPath id="_clip4">
                        <rect x="87.811" y="219.84" width="444.2" height="190.89"/>
                    </clipPath>
                    <g clip-path="url(#_clip4)">
                        <path d="M87.838,383.31L235.78,362.54L383.69,341.78L531.63,321.04" style="fill:none;fill-rule:nonzero;stroke:rgb(166,166,166);stroke-width:1.01px;stroke-linecap:round;stroke-dasharray:2.03,2.03;"/>
                    </g>
                </g>
                <g transform="matrix(0,-1,-1,0,408.851,608.601)">
                    <ellipse cx="87.826" cy="321.025" rx="1.735" ry="1.736" style="fill:rgb(166,166,166);stroke:rgb(166,166,166);stroke-width:0.43px;"/>
                </g>
                <g transform="matrix(0,-1,-1,0,577.585,735.815)">
                    <ellipse cx="235.8" cy="341.785" rx="1.735" ry="1.74" style="fill:rgb(166,166,166);stroke:rgb(166,166,166);stroke-width:0.43px;"/>
                </g>
                <g transform="matrix(0,-1,-1,0,746.25,862.96)">
                    <circle cx="383.705" cy="362.545" r="1.735" style="fill:rgb(166,166,166);stroke:rgb(166,166,166);stroke-width:0.43px;"/>
                </g>
                <g transform="matrix(0,-1,-1,0,914.98,990.17)">
                    <circle cx="531.675" cy="383.305" r="1.735" style="fill:rgb(166,166,166);stroke:rgb(166,166,166);stroke-width:0.43px;"/>
                </g>
                <g transform="matrix(1,0,0,1,0,133.39)">
                    <clipPath id="_clip5">
                        <rect x="87.811" y="223.9" width="444.2" height="190.89"/>
                    </clipPath>
                    <g clip-path="url(#_clip5)">
                        <path d="M87.838,388.32L235.78,362.15L383.69,341.39L531.63,320.09" style="fill:none;fill-rule:nonzero;stroke:rgb(255,192,0);stroke-width:1.01px;stroke-linecap:round;"/>
                    </g>
                </g>
                <g transform="matrix(1,0,0,1,0,201.7)">
                    <path d="M89.562,321.79L86.09,318.31M87.826,318.31L87.826,321.79M86.09,321.79L89.562,318.31" style="fill:none;fill-rule:nonzero;stroke:rgb(255,192,0);stroke-width:0.43px;"/>
                </g>
                <g transform="matrix(1,0,0,1,0,149.35)">
                    <path d="M237.54,347.96L234.06,344.49M235.8,344.49L235.8,347.96M234.06,347.96L237.54,344.49" style="fill:none;fill-rule:nonzero;stroke:rgb(255,192,0);stroke-width:0.43px;"/>
                </g>
                <g transform="matrix(1,0,0,1,0,107.81)">
                    <path d="M385.44,368.73L381.97,365.26M383.7,365.26L383.7,368.73M381.97,368.73L385.44,365.26" style="fill:none;fill-rule:nonzero;stroke:rgb(255,192,0);stroke-width:0.43px;"/>
                </g>
                <g transform="matrix(1,0,0,1,0,65.19)">
                    <path d="M533.41,390.04L529.94,386.57M531.68,386.57L531.68,390.04M529.94,390.04L533.41,386.57" style="fill:none;fill-rule:nonzero;stroke:rgb(255,192,0);stroke-width:0.43px;"/>
                </g>
                <g transform="matrix(1,0,0,1,0,114.56)">
                    <clipPath id="_clip6">
                        <rect x="87.811" y="242.73" width="444.2" height="190.89"/>
                    </clipPath>
                    <g clip-path="url(#_clip6)">
                        <path d="M87.838,400.66L235.78,373.28L383.69,348.76L531.63,326.58" style="fill:none;fill-rule:nonzero;stroke:rgb(91,155,213);stroke-width:1.01px;stroke-linecap:round;"/>
                    </g>
                </g>
                <g transform="matrix(1,0,0,1,0,188.65)">
                    <path d="M89.562,328.31L86.09,324.84M87.826,324.84L87.826,328.31M86.09,328.31L89.562,324.84" style="fill:rgb(91,155,213);fill-rule:nonzero;stroke:rgb(91,155,213);stroke-width:0.43px;"/>
                </g>
                <g transform="matrix(1,0,0,1,0,133.93)">
                    <path d="M237.54,355.67L234.06,352.2M235.8,352.2L235.8,355.67M234.06,355.67L237.54,352.2" style="fill:rgb(91,155,213);fill-rule:nonzero;stroke:rgb(91,155,213);stroke-width:0.43px;"/>
                </g>
                <g transform="matrix(1,0,0,1,0,84.91)">
                    <path d="M385.44,380.18L381.97,376.71M383.7,376.71L383.7,380.18M381.97,380.18L385.44,376.71" style="fill:rgb(91,155,213);fill-rule:nonzero;stroke:rgb(91,155,213);stroke-width:0.43px;"/>
                </g>
                <g transform="matrix(1,0,0,1,0,40.6)">
                    <path d="M533.41,402.34L529.94,398.86M531.68,398.86L531.68,402.34M529.94,402.34L533.41,398.86" style="fill:rgb(91,155,213);fill-rule:nonzero;stroke:rgb(91,155,213);stroke-width:0.43px;"/>
                </g>
                <text x="80.376px" y="549.31px" style="font-family:'Calibri', sans-serif;font-size:5.208px;fill:rgb(88,88,88);">1</text>
                <text x="77.736px" y="528.55px" style="font-family:'Calibri', sans-serif;font-size:5.208px;fill:rgb(88,88,88);">10</text>
                <text x="75.096px" y="507.79px" style="font-family:'Calibri', sans-serif;font-size:5.208px;fill:rgb(88,88,88);">100</text>
                <text x="72.456px" y="487.03px" style="font-family:'Calibri', sans-serif;font-size:5.208px;fill:rgb(88,88,88);">1000</text>
                <text x="69.816px" y="466.27px" style="font-family:'Calibri', sans-serif;font-size:5.208px;fill:rgb(88,88,88);">10000</text>
                <text x="67.176px" y="445.51px" style="font-family:'Calibri', sans-serif;font-size:5.208px;fill:rgb(88,88,88);">100000</text>
                <text x="64.536px" y="424.75px" style="font-family:'Calibri', sans-serif;font-size:5.208px;fill:rgb(88,88,88);">1000000</text>
                <text x="61.896px" y="403.99px" style="font-family:'Calibri', sans-serif;font-size:5.208px;fill:rgb(88,88,88);">10000000</text>
                <text x="59.256px" y="383.23px" style="font-family:'Calibri', sans-serif;font-size:5.208px;fill:rgb(88,88,88);">100000000</text>
                <g>
                    <text x="69.96px" y="362.47px" style="font-family:'Calibri', sans-serif;font-size:5.208px;fill:rgb(88,88,88);">1E</text>
                    <text x="75.163px" y="362.47px" style="font-family:'Calibri', sans-serif;font-size:5.208px;fill:rgb(88,88,88);">+</text>
                    <text x="77.73px" y="362.47px" style="font-family:'Calibri', sans-serif;font-size:5.208px;fill:rgb(88,88,88);">09</text>
                </g>
                <text x="84.48px" y="556.08px" style="font-family:'Calibri', sans-serif;font-size:5.208px;fill:rgb(88,88,88);">1<tspan x="87.816px " y="556.08px ">0</tspan></text>
                <text x="230.78px" y="556.08px" style="font-family:'Calibri', sans-serif;font-size:5.208px;fill:rgb(88,88,88);">1<tspan x="234.116px 237.453px " y="556.08px 556.08px ">00</tspan></text>
                <text x="377.06px" y="556.08px" style="font-family:'Calibri', sans-serif;font-size:5.208px;fill:rgb(88,88,88);">1<tspan x="380.396px 383.733px 387.069px " y="556.08px 556.08px 556.08px ">000</tspan></text>
                <text x="523.37px" y="556.08px" style="font-family:'Calibri', sans-serif;font-size:5.208px;fill:rgb(88,88,88);">1<tspan x="526.706px 530.043px 533.379px 536.716px " y="556.08px 556.08px 556.08px 556.08px ">0000</tspan></text>
                <g transform="matrix(-4.4e-08,-1,1,-4.4e-08,0,0)">
                    <text x="-480.94px" y="62.856px" style="font-family:'Calibri', sans-serif;font-size:5.208px;fill:rgb(88,88,88);">NOMBR</text>
                    <text x="-464.04px" y="62.856px" style="font-family:'Calibri', sans-serif;font-size:5.208px;fill:rgb(88,88,88);">E D&apos;</text>
                    <text x="-455.94px" y="62.856px" style="font-family:'Calibri', sans-serif;font-size:5.208px;fill:rgb(88,88,88);">AFF</text>
                    <text x="-448.242px" y="62.856px" style="font-family:'Calibri', sans-serif;font-size:5.208px;fill:rgb(88,88,88);">ECT</text>
                    <text x="-440.331px" y="62.856px" style="font-family:'Calibri', sans-serif;font-size:5.208px;fill:rgb(88,88,88);">A</text>
                    <text x="-437.358px" y="62.856px" style="font-family:'Calibri', sans-serif;font-size:5.208px;fill:rgb(88,88,88);">TIO</text>
                    <text x="-430.025px" y="62.856px" style="font-family:'Calibri', sans-serif;font-size:5.208px;fill:rgb(88,88,88);">NS</text>
                </g>
                <g>
                    <text x="286.3px" y="564.17px" style="font-family:'Calibri', sans-serif;font-size:5.208px;fill:rgb(88,88,88);">N</text>
                    <text x="289.638px" y="564.17px" style="font-family:'Calibri', sans-serif;font-size:5.208px;fill:rgb(88,88,88);">OMBRE</text>
                    <text x="307.069px" y="564.17px" style="font-family:'Calibri', sans-serif;font-size:5.208px;fill:rgb(88,88,88);">DE</text>
                    <text x="314.02px" y="564.17px" style="font-family:'Calibri', sans-serif;font-size:5.208px;fill:rgb(88,88,88);">V</text>
                    <text x="317.014px" y="564.17px" style="font-family:'Calibri', sans-serif;font-size:5.208px;fill:rgb(88,88,88);">ALEU</text>
                    <text x="328.149px" y="564.17px" style="font-family:'Calibri', sans-serif;font-size:5.208px;fill:rgb(88,88,88);">RS</text>
                </g>
                <g>
                    <text x="150.02px" y="323.09px" style="font-family:'Calibri-Bold', 'Calibri', sans-serif;font-weight:700;font-size:9.24px;fill:rgb(88,88,88);">N<tspan x="156.795px " y="323.09px ">O</tspan></text>
                    <text x="163.732px" y="323.09px" style="font-family:'Calibri-Bold', 'Calibri', sans-serif;font-weight:700;font-size:9.24px;fill:rgb(88,88,88);">M</text>
                    <text x="172.455px" y="323.09px" style="font-family:'Calibri-Bold', 'Calibri', sans-serif;font-weight:700;font-size:9.24px;fill:rgb(88,88,88);">B<tspan x="178.332px 184.233px " y="323.09px 323.09px ">RE</tspan></text>
                    <text x="192.265px" y="323.09px" style="font-family:'Calibri-Bold', 'Calibri', sans-serif;font-weight:700;font-size:9.24px;fill:rgb(88,88,88);">D</text>
                    <text x="198.788px" y="323.09px" style="font-family:'Calibri-Bold', 'Calibri', sans-serif;font-weight:700;font-size:9.24px;fill:rgb(88,88,88);">&apos;<tspan x="201.62px 207.894px 212.81px 217.726px 222.773px " y="323.09px 323.09px 323.09px 323.09px 323.09px ">AFFEC</tspan></text>
                    <text x="228.384px" y="323.09px" style="font-family:'Calibri-Bold', 'Calibri', sans-serif;font-weight:700;font-size:9.24px;fill:rgb(88,88,88);">TA<tspan x="238.554px " y="323.09px ">T</tspan></text>
                    <text x="243.852px" y="323.09px" style="font-family:'Calibri-Bold', 'Calibri', sans-serif;font-weight:700;font-size:9.24px;fill:rgb(88,88,88);">I<tspan x="246.996px 253.925px 260.692px " y="323.09px 323.09px 323.09px ">ONS</tspan></text>
                    <text x="268.495px" y="323.09px" style="font-family:'Calibri-Bold', 'Calibri', sans-serif;font-weight:700;font-size:9.24px;fill:rgb(88,88,88);">E<tspan x="273.683px " y="323.09px ">N</tspan></text>
                    <text x="283.252px" y="323.09px" style="font-family:'Calibri-Bold', 'Calibri', sans-serif;font-weight:700;font-size:9.24px;fill:rgb(88,88,88);">F<tspan x="288.106px 295.035px 301.802px 307.418px 312.674px 315.818px 322.747px " y="323.09px 323.09px 323.09px 323.09px 323.09px 323.09px 323.09px ">ONCTION</tspan></text>
                    <text x="332.325px" y="323.09px" style="font-family:'Calibri-Bold', 'Calibri', sans-serif;font-weight:700;font-size:9.24px;fill:rgb(88,88,88);">D<tspan x="338.83px " y="323.09px ">U</tspan></text>
                    <text x="348.32px" y="323.09px" style="font-family:'Calibri-Bold', 'Calibri', sans-serif;font-weight:700;font-size:9.24px;fill:rgb(88,88,88);">N<tspan x="355.087px 362.016px " y="323.09px 323.09px ">OM</tspan></text>
                    <text x="370.773px" y="323.09px" style="font-family:'Calibri-Bold', 'Calibri', sans-serif;font-weight:700;font-size:9.24px;fill:rgb(88,88,88);">B<tspan x="376.652px 382.555px " y="323.09px 323.09px ">RE</tspan></text>
                    <text x="390.565px" y="323.09px" style="font-family:'Calibri-Bold', 'Calibri', sans-serif;font-weight:700;font-size:9.24px;fill:rgb(88,88,88);">D<tspan x="397.09px " y="323.09px ">E</tspan></text>
                    <text x="405.053px" y="323.09px" style="font-family:'Calibri-Bold', 'Calibri', sans-serif;font-weight:700;font-size:9.24px;fill:rgb(88,88,88);">V<tspan x="410.725px " y="323.09px ">A</tspan></text>
                    <text x="417.025px" y="323.09px" style="font-family:'Calibri-Bold', 'Calibri', sans-serif;font-weight:700;font-size:9.24px;fill:rgb(88,88,88);">L<tspan x="421.619px 426.813px 433.531px 439.33px " y="323.09px 323.09px 323.09px 323.09px ">EURS</tspan></text>
                    <text x="183.91px" y="334.42px" style="font-family:'Calibri-Bold', 'Calibri', sans-serif;font-weight:700;font-size:9.24px;fill:rgb(88,88,88);">V<tspan x="189.576px 195.869px 200.47px 205.672px 212.398px 218.204px " y="334.42px 334.42px 334.42px 334.42px 334.42px 334.42px ">ALEURS</tspan></text>
                    <text x="226.054px" y="334.42px" style="font-family:'Calibri-Bold', 'Calibri', sans-serif;font-weight:700;font-size:9.24px;fill:rgb(88,88,88);">D<tspan x="232.572px " y="334.42px ">É</tspan></text>
                    <text x="237.638px" y="334.42px" style="font-family:'Calibri-Bold', 'Calibri', sans-serif;font-weight:700;font-size:9.24px;fill:rgb(88,88,88);">C</text>
                    <text x="243.173px" y="334.42px" style="font-family:'Calibri-Bold', 'Calibri', sans-serif;font-weight:700;font-size:9.24px;fill:rgb(88,88,88);">R<tspan x="248.98px " y="334.42px ">O</tspan></text>
                    <text x="255.924px" y="334.42px" style="font-family:'Calibri-Bold', 'Calibri', sans-serif;font-weight:700;font-size:9.24px;fill:rgb(88,88,88);">I<tspan x="259.051px 264.081px " y="334.42px 334.42px ">SS</tspan></text>
                    <text x="268.999px" y="334.42px" style="font-family:'Calibri-Bold', 'Calibri', sans-serif;font-weight:700;font-size:9.24px;fill:rgb(88,88,88);">A<tspan x="275.301px 282.091px 287.369px 292.489px " y="334.42px 334.42px 334.42px 334.42px ">NTES</tspan></text>
                    <text x="300.67px" y="334.42px" style="font-family:'Calibri-Bold', 'Calibri', sans-serif;font-weight:700;font-size:9.24px;fill:rgb(88,88,88);">-</text>
                    <text x="306.599px" y="334.42px" style="font-family:'Calibri-Bold', 'Calibri', sans-serif;font-weight:700;font-size:9.24px;fill:rgb(88,88,88);">A<tspan x="312.888px 318.668px " y="334.42px 334.42px ">XE</tspan></text>
                    <text x="327.077px" y="334.42px" style="font-family:'Calibri-Bold', 'Calibri', sans-serif;font-weight:700;font-size:9.24px;fill:rgb(88,88,88);">Y</text>
                    <text x="335.338px" y="334.42px" style="font-family:'Calibri-Bold', 'Calibri', sans-serif;font-weight:700;font-size:9.24px;fill:rgb(88,88,88);">L<tspan x="339.772px 346.711px 353.289px 359.579px " y="334.42px 334.42px 334.42px 334.42px ">OGAR</tspan></text>
                    <text x="365.471px" y="334.42px" style="font-family:'Calibri-Bold', 'Calibri', sans-serif;font-weight:700;font-size:9.24px;fill:rgb(88,88,88);">I<tspan x="368.602px 373.845px 380.342px 389.086px 392.217px " y="334.42px 334.42px 334.42px 334.42px 334.42px ">THMIQ</tspan></text>
                    <text x="399.224px" y="334.42px" style="font-family:'Calibri-Bold', 'Calibri', sans-serif;font-weight:700;font-size:9.24px;fill:rgb(88,88,88);">U<tspan x="405.96px " y="334.42px ">E</tspan></text>
                    <text x="217.68px" y="347.568px" style="font-family:'Calibri', sans-serif;font-size:5.208px;fill:rgb(88,88,88);">b</text>
                    <text x="220.393px" y="347.568px" style="font-family:'Calibri', sans-serif;font-size:5.208px;fill:rgb(88,88,88);">u</text>
                    <text x="223.174px" y="347.568px" style="font-family:'Calibri', sans-serif;font-size:5.208px;fill:rgb(88,88,88);">b</text>
                    <text x="225.888px" y="347.568px" style="font-family:'Calibri', sans-serif;font-size:5.208px;fill:rgb(88,88,88);">b</text>
                    <text x="228.669px" y="347.568px" style="font-family:'Calibri', sans-serif;font-size:5.208px;fill:rgb(88,88,88);">le</text>
                </g>
                <g>
                    <text x="251.86px" y="347.57px" style="font-family:'Calibri', sans-serif;font-size:5.208px;fill:rgb(88,88,88);">i</text>
                    <text x="253.037px" y="347.57px" style="font-family:'Calibri', sans-serif;font-size:5.208px;fill:rgb(88,88,88);">n</text>
                    <text x="255.818px" y="347.57px" style="font-family:'Calibri', sans-serif;font-size:5.208px;fill:rgb(88,88,88);">sert</text>
                </g>
                <g>
                    <text x="283.42px" y="347.57px" style="font-family:'Calibri', sans-serif;font-size:5.208px;fill:rgb(88,88,88);">s</text>
                    <text x="285.435px" y="347.57px" style="font-family:'Calibri', sans-serif;font-size:5.208px;fill:rgb(88,88,88);">e</text>
                    <path d="M296.404,345.152C296.455,345.152 296.49,345.163 296.508,345.186C296.527,345.209 296.536,345.242 296.536,345.286L296.536,347.506C296.536,347.52 296.533,347.531 296.526,347.541C296.519,347.55 296.508,347.558 296.492,347.565C296.476,347.572 296.454,347.577 296.427,347.58C296.4,347.584 296.367,347.585 296.328,347.585C296.285,347.585 296.251,347.584 296.223,347.58C296.196,347.577 296.175,347.572 296.159,347.565C296.142,347.558 296.131,347.55 296.124,347.541C296.117,347.531 296.114,347.52 296.114,347.506L296.114,345.5L294.932,345.5L294.932,346.777C294.932,346.934 294.955,347.053 295.002,347.134C295.048,347.214 295.132,347.255 295.252,347.255C295.291,347.255 295.326,347.251 295.356,347.243C295.387,347.236 295.414,347.228 295.438,347.219C295.461,347.211 295.482,347.203 295.499,347.195C295.516,347.187 295.531,347.183 295.544,347.183C295.553,347.183 295.561,347.186 295.569,347.19C295.576,347.194 295.582,347.202 295.586,347.214C295.591,347.226 295.594,347.242 295.598,347.262C295.601,347.283 295.603,347.308 295.603,347.339C295.603,347.388 295.6,347.426 295.593,347.454C295.586,347.482 295.576,347.503 295.562,347.518C295.549,347.532 295.528,347.545 295.501,347.557C295.474,347.569 295.443,347.579 295.408,347.587C295.374,347.594 295.337,347.601 295.298,347.606C295.259,347.611 295.22,347.613 295.181,347.613C295.062,347.613 294.96,347.598 294.876,347.566C294.791,347.535 294.721,347.487 294.667,347.424C294.613,347.36 294.573,347.28 294.549,347.182C294.524,347.085 294.512,346.97 294.512,346.838L294.512,345.5L294.192,345.5C294.166,345.5 294.146,345.486 294.131,345.459C294.115,345.432 294.108,345.388 294.108,345.327C294.108,345.295 294.11,345.268 294.114,345.246C294.118,345.224 294.124,345.205 294.131,345.191C294.137,345.177 294.146,345.166 294.157,345.161C294.168,345.155 294.181,345.152 294.194,345.152L294.512,345.152L294.512,344.607C294.512,344.596 294.515,344.585 294.521,344.574C294.527,344.564 294.538,344.555 294.554,344.548C294.57,344.54 294.592,344.535 294.619,344.531C294.646,344.528 294.68,344.526 294.721,344.526C294.763,344.526 294.798,344.528 294.825,344.531C294.852,344.535 294.873,344.54 294.888,344.548C294.904,344.555 294.915,344.564 294.921,344.574C294.928,344.585 294.932,344.596 294.932,344.607L294.932,345.152L296.404,345.152ZM296.585,344.445C296.585,344.543 296.566,344.61 296.529,344.646C296.491,344.681 296.423,344.699 296.323,344.699C296.224,344.699 296.157,344.682 296.12,344.647C296.084,344.612 296.066,344.546 296.066,344.45C296.066,344.351 296.084,344.284 296.122,344.249C296.159,344.213 296.228,344.195 296.328,344.195C296.426,344.195 296.493,344.213 296.53,344.248C296.566,344.282 296.585,344.348 296.585,344.445Z" style="fill:rgb(88,88,88);"/>
                    <text x="288.071px" y="347.57px" style="font-family:'Calibri', sans-serif;font-size:5.208px;fill:rgb(88,88,88);">lec<tspan x="296.913px " y="347.57px ">o</tspan>n</text>
                </g>
                <g>
                    <text x="321.89px" y="347.57px" style="font-family:'Calibri', sans-serif;font-size:5.208px;fill:rgb(88,88,88);">std</text>
                    <text x="328.39px" y="347.57px" style="font-family:'Calibri', sans-serif;font-size:5.208px;fill:rgb(88,88,88);">::</text>
                    <text x="331.181px" y="347.57px" style="font-family:'Calibri', sans-serif;font-size:5.208px;fill:rgb(88,88,88);">so</text>
                    <text x="335.936px" y="347.57px" style="font-family:'Calibri', sans-serif;font-size:5.208px;fill:rgb(88,88,88);">rt</text>
                </g>
                <g>
                    <text x="358.97px" y="347.57px" style="font-family:'Calibri', sans-serif;font-size:5.208px;fill:rgb(88,88,88);">st</text>
                    <text x="362.715px" y="347.57px" style="font-family:'Calibri', sans-serif;font-size:5.208px;fill:rgb(88,88,88);">d::</text>
                    <text x="368.261px" y="347.57px" style="font-family:'Calibri', sans-serif;font-size:5.208px;fill:rgb(88,88,88);">s</text>
                    <text x="370.271px" y="347.57px" style="font-family:'Calibri', sans-serif;font-size:5.208px;fill:rgb(88,88,88);">t</text>
                    <text x="372.068px" y="347.57px" style="font-family:'Calibri', sans-serif;font-size:5.208px;fill:rgb(88,88,88);">a</text>
                    <text x="374.49px" y="347.57px" style="font-family:'Calibri', sans-serif;font-size:5.208px;fill:rgb(88,88,88);">b</text>
                    <text x="377.245px" y="347.57px" style="font-family:'Calibri', sans-serif;font-size:5.208px;fill:rgb(88,88,88);">le</text>
                    <text x="380.989px" y="347.57px" style="font-family:'Calibri', sans-serif;font-size:5.208px;fill:rgb(88,88,88);">_</text>
                    <text x="383.625px" y="347.57px" style="font-family:'Calibri', sans-serif;font-size:5.208px;fill:rgb(88,88,88);">sort</text>
                </g>
                <g transform="matrix(1,0,0,1,0,-149.68)">
                    <path d="M205.37,495.74L216.48,495.74" style="fill:none;fill-rule:nonzero;stroke:rgb(68,114,196);stroke-width:1.01px;stroke-linecap:round;"/>
                </g>
                <g transform="matrix(1,0,0,1,0,-149.72)">
                    <path d="M212.31,497.22L209.4,494.3M210.86,494.3L210.86,497.22M209.4,497.22L212.31,494.3" style="fill:none;fill-rule:nonzero;stroke:rgb(68,114,196);stroke-width:0.43px;"/>
                </g>
                <g transform="matrix(1,0,0,1,0,-149.68)">
                    <path d="M239.53,495.74L250.64,495.74" style="fill:none;fill-rule:nonzero;stroke:rgb(237,125,49);stroke-width:1.01px;stroke-linecap:round;"/>
                </g>
                <g transform="matrix(1,0,0,1,0,-149.72)">
                    <path d="M246.48,497.22L243.56,494.3M245.02,494.3L245.02,497.22M243.56,497.22L246.48,494.3" style="fill:none;fill-rule:nonzero;stroke:rgb(237,125,49);stroke-width:0.43px;"/>
                </g>
                <g transform="matrix(1,0,0,1,0,-149.68)">
                    <path d="M271.07,495.74L282.18,495.74" style="fill:none;fill-rule:nonzero;stroke:rgb(166,166,166);stroke-width:1.01px;stroke-linecap:round;stroke-dasharray:2.03,2.03;"/>
                </g>
                <g transform="matrix(0,-1,-1,0,772.375,622.655)">
                    <ellipse cx="276.615" cy="495.76" rx="1.46" ry="1.455" style="fill:rgb(166,166,166);stroke:rgb(166,166,166);stroke-width:0.43px;"/>
                </g>
                <g transform="matrix(1,0,0,1,0,-149.68)">
                    <path d="M309.53,495.74L320.64,495.74" style="fill:none;fill-rule:nonzero;stroke:rgb(255,192,0);stroke-width:1.01px;stroke-linecap:round;"/>
                </g>
                <g transform="matrix(1,0,0,1,0,-149.72)">
                    <path d="M316.54,497.22L313.62,494.3M315.08,494.3L315.08,497.22M313.62,497.22L316.54,494.3" style="fill:none;fill-rule:nonzero;stroke:rgb(255,192,0);stroke-width:0.43px;"/>
                </g>
                <g transform="matrix(1,0,0,1,0,-149.68)">
                    <path d="M346.61,495.74L357.72,495.74" style="fill:none;fill-rule:nonzero;stroke:rgb(91,155,213);stroke-width:1.01px;stroke-linecap:round;"/>
                </g>
                <g transform="matrix(1,0,0,1,0,-149.72)">
                    <path d="M353.62,497.22L350.7,494.3M352.16,494.3L352.16,497.22M350.7,497.22L353.62,494.3" style="fill:rgb(91,155,213);fill-rule:nonzero;stroke:rgb(91,155,213);stroke-width:0.43px;"/>
                </g>
                <g transform="matrix(1,0,0,1,0,40.86)">
                    <rect x="50.677" y="269.04" width="493.91" height="262.86" style="fill:none;stroke:rgb(218,218,218);stroke-width:0.43px;"/>
                </g>
            </g>
        </g>
    </g>
</svg>
