<?xml version="1.0" encoding="UTF-8" standalone="no"?>
<!DOCTYPE svg PUBLIC "-//W3C//DTD SVG 1.1//EN" "http://www.w3.org/Graphics/SVG/1.1/DTD/svg11.dtd">
<svg width="100%" height="100%" viewBox="0 0 495 264" version="1.1" xmlns="http://www.w3.org/2000/svg" xmlns:xlink="http://www.w3.org/1999/xlink" xml:space="preserve" xmlns:serif="http://www.serif.com/" style="fill-rule:evenodd;clip-rule:evenodd;stroke-linejoin:round;stroke-miterlimit:10;">
    <g transform="matrix(1,0,0,1,-50.54,-309.673)">
        <g>
            <clipPath id="_clip1">
                <rect x="50.4" y="309.6" width="494.4" height="263.28"/>
            </clipPath>
            <g clip-path="url(#_clip1)">
                <g transform="matrix(1,0,0,1,0,40.8)">
                    <rect x="50.757" y="269.09" width="493.91" height="262.82" style="fill:white;"/>
                </g>
                <g transform="matrix(1,0,0,1,0,56.66)">
                    <path d="M94.656,469.2L531.71,469.2M94.656,447.26L531.71,447.26M94.656,425.4L531.71,425.4M94.656,403.53L531.71,403.53M94.656,381.59L531.71,381.59M94.656,359.72L531.71,359.72M94.656,337.85L531.71,337.85M94.656,315.94L531.71,315.94" style="fill:none;fill-rule:nonzero;stroke:rgb(218,218,218);stroke-width:0.43px;"/>
                </g>
                <g transform="matrix(1,0,0,1,0,63.23)">
                    <path d="M240.34,294.07L240.34,484.5M386,294.07L386,484.5M531.71,294.07L531.71,484.5" style="fill:none;fill-rule:nonzero;stroke:rgb(218,218,218);stroke-width:0.43px;"/>
                </g>
                <g transform="matrix(0,-1,-1,0,483.941,547.171)">
                    <path d="M-0.559,389.285L189.871,389.285" style="fill:none;fill-rule:nonzero;stroke:rgb(218,218,218);stroke-width:0.43px;"/>
                </g>
                <g transform="matrix(1,0,0,1,0,253.66)">
                    <path d="M94.656,294.07L531.71,294.07" style="fill:none;fill-rule:nonzero;stroke:rgb(218,218,218);stroke-width:0.43px;"/>
                </g>
                <g transform="matrix(1,0,0,1,0,43.91)">
                    <clipPath id="_clip2">
                        <rect x="94.607" y="313.38" width="437.47" height="190.86"/>
                    </clipPath>
                    <g clip-path="url(#_clip2)">
                        <path d="M94.656,466.44L240.34,419.61L386,375.38L531.71,331.45" style="fill:none;fill-rule:nonzero;stroke:rgb(68,114,196);stroke-width:1.01px;stroke-linecap:round;"/>
                    </g>
                </g>
                <g transform="matrix(1,0,0,1,0,178.86)">
                    <path d="M96.441,333.21L92.97,329.73M94.705,329.73L94.705,333.21M92.97,333.21L96.441,329.73" style="fill:none;fill-rule:nonzero;stroke:rgb(68,114,196);stroke-width:0.43px;"/>
                </g>
                <g transform="matrix(1,0,0,1,0,85.27)">
                    <path d="M242.1,380L238.63,376.53M240.37,376.53L240.37,380M238.63,380L242.1,376.53" style="fill:none;fill-rule:nonzero;stroke:rgb(68,114,196);stroke-width:0.43px;"/>
                </g>
                <g transform="matrix(1,0,0,1,0,-3.18)">
                    <path d="M387.76,424.23L384.29,420.75M386.03,420.75L386.03,424.23M384.29,424.23L387.76,420.75" style="fill:none;fill-rule:nonzero;stroke:rgb(68,114,196);stroke-width:0.43px;"/>
                </g>
                <g transform="matrix(1,0,0,1,0,-91.07)">
                    <path d="M533.49,468.17L530.02,464.7M531.76,464.7L531.76,468.17M530.02,468.17L533.49,464.7" style="fill:none;fill-rule:nonzero;stroke:rgb(68,114,196);stroke-width:0.43px;"/>
                </g>
                <g transform="matrix(1,0,0,1,0,131.5)">
                    <clipPath id="_clip3">
                        <rect x="94.607" y="225.79" width="437.47" height="190.86"/>
                    </clipPath>
                    <g clip-path="url(#_clip3)">
                        <path d="M94.656,388.23L240.34,365.9L386,343.96L531.71,322.07" style="fill:none;fill-rule:nonzero;stroke:rgb(237,125,49);stroke-width:1.01px;stroke-linecap:round;"/>
                    </g>
                </g>
                <g transform="matrix(1,0,0,1,0,197.75)">
                    <path d="M96.441,323.76L92.97,320.29M94.705,320.29L94.705,323.76M92.97,323.76L96.441,320.29" style="fill:none;fill-rule:nonzero;stroke:rgb(237,125,49);stroke-width:0.43px;"/>
                </g>
                <g transform="matrix(1,0,0,1,0,153.03)">
                    <path d="M242.1,346.12L238.63,342.65M240.37,342.65L240.37,346.12M238.63,346.12L242.1,342.65" style="fill:none;fill-rule:nonzero;stroke:rgb(237,125,49);stroke-width:0.43px;"/>
                </g>
                <g transform="matrix(1,0,0,1,0,109.15)">
                    <path d="M387.76,368.06L384.29,364.59M386.03,364.59L386.03,368.06M384.29,368.06L387.76,364.59" style="fill:none;fill-rule:nonzero;stroke:rgb(237,125,49);stroke-width:0.43px;"/>
                </g>
                <g transform="matrix(1,0,0,1,0,65.41)">
                    <path d="M533.49,389.93L530.02,386.46M531.76,386.46L531.76,389.93M530.02,389.93L533.49,386.46" style="fill:none;fill-rule:nonzero;stroke:rgb(237,125,49);stroke-width:0.43px;"/>
                </g>
                <g transform="matrix(1,0,0,1,0,131.02)">
                    <clipPath id="_clip4">
                        <rect x="94.607" y="226.27" width="437.47" height="190.86"/>
                    </clipPath>
                    <g clip-path="url(#_clip4)">
                        <path d="M94.656,388.23L240.34,366.31L386,344.44L531.71,322.55" style="fill:none;fill-rule:nonzero;stroke:rgb(166,166,166);stroke-width:1.01px;stroke-linecap:round;stroke-dasharray:2.03,2.03;"/>
                    </g>
                </g>
                <g transform="matrix(0,-1,-1,0,417.221,613.99)">
                    <ellipse cx="94.706" cy="322.515" rx="1.735" ry="1.736" style="fill:rgb(166,166,166);stroke:rgb(166,166,166);stroke-width:0.43px;"/>
                </g>
                <g transform="matrix(0,-1,-1,0,584.82,737.71)">
                    <circle cx="240.365" cy="344.455" r="1.735" style="fill:rgb(166,166,166);stroke:rgb(166,166,166);stroke-width:0.43px;"/>
                </g>
                <g transform="matrix(0,-1,-1,0,752.35,861.5)">
                    <circle cx="386.025" cy="366.325" r="1.735" style="fill:rgb(166,166,166);stroke:rgb(166,166,166);stroke-width:0.43px;"/>
                </g>
                <g transform="matrix(0,-1,-1,0,919.95,985.36)">
                    <circle cx="531.755" cy="388.195" r="1.735" style="fill:rgb(166,166,166);stroke:rgb(166,166,166);stroke-width:0.43px;"/>
                </g>
                <g transform="matrix(1,0,0,1,0,126.74)">
                    <clipPath id="_clip5">
                        <rect x="94.607" y="230.55" width="437.47" height="190.86"/>
                    </clipPath>
                    <g clip-path="url(#_clip5)">
                        <path d="M94.656,393.51L240.34,365.94L386,344L531.71,321.55" style="fill:none;fill-rule:nonzero;stroke:rgb(255,192,0);stroke-width:1.01px;stroke-linecap:round;"/>
                    </g>
                </g>
                <g transform="matrix(1,0,0,1,0,198.71)">
                    <path d="M96.441,323.28L92.97,319.81M94.705,319.81L94.705,323.28M92.97,323.28L96.441,319.81" style="fill:none;fill-rule:nonzero;stroke:rgb(255,192,0);stroke-width:0.43px;"/>
                </g>
                <g transform="matrix(1,0,0,1,0,143.59)">
                    <path d="M242.1,350.84L238.63,347.37M240.37,347.37L240.37,350.84M238.63,350.84L242.1,347.37" style="fill:none;fill-rule:nonzero;stroke:rgb(255,192,0);stroke-width:0.43px;"/>
                </g>
                <g transform="matrix(1,0,0,1,0,99.71)">
                    <path d="M387.76,372.78L384.29,369.31M386.03,369.31L386.03,372.78M384.29,372.78L387.76,369.31" style="fill:none;fill-rule:nonzero;stroke:rgb(255,192,0);stroke-width:0.43px;"/>
                </g>
                <g transform="matrix(1,0,0,1,0,54.87)">
                    <path d="M533.49,395.2L530.02,391.73M531.76,391.73L531.76,395.2M530.02,395.2L533.49,391.73" style="fill:none;fill-rule:nonzero;stroke:rgb(255,192,0);stroke-width:0.43px;"/>
                </g>
                <g transform="matrix(1,0,0,1,0,106.87)">
                    <clipPath id="_clip6">
                        <rect x="94.607" y="250.42" width="437.47" height="190.86"/>
                    </clipPath>
                    <g clip-path="url(#_clip6)">
                        <path d="M94.656,406.53L240.34,377.68L386,351.79L531.71,328.4" style="fill:none;fill-rule:nonzero;stroke:rgb(91,155,213);stroke-width:1.01px;stroke-linecap:round;"/>
                    </g>
                </g>
                <g transform="matrix(1,0,0,1,0,184.97)">
                    <path d="M96.441,330.15L92.97,326.68M94.705,326.68L94.705,330.15M92.97,330.15L96.441,326.68" style="fill:rgb(91,155,213);fill-rule:nonzero;stroke:rgb(91,155,213);stroke-width:0.43px;"/>
                </g>
                <g transform="matrix(1,0,0,1,0,127.35)">
                    <path d="M242.1,358.96L238.63,355.49M240.37,355.49L240.37,358.96M238.63,358.96L242.1,355.49" style="fill:rgb(91,155,213);fill-rule:nonzero;stroke:rgb(91,155,213);stroke-width:0.43px;"/>
                </g>
                <g transform="matrix(1,0,0,1,0,75.55)">
                    <path d="M387.76,384.86L384.29,381.39M386.03,381.39L386.03,384.86M384.29,384.86L387.76,381.39" style="fill:rgb(91,155,213);fill-rule:nonzero;stroke:rgb(91,155,213);stroke-width:0.43px;"/>
                </g>
                <g transform="matrix(1,0,0,1,0,28.75)">
                    <path d="M533.49,408.26L530.02,404.79M531.76,404.79L531.76,408.26M530.02,408.26L533.49,404.79" style="fill:rgb(91,155,213);fill-rule:nonzero;stroke:rgb(91,155,213);stroke-width:0.43px;"/>
                </g>
                <text x="87.192px" y="549.26px" style="font-family:'Calibri', sans-serif;font-size:5.208px;fill:rgb(88,88,88);">1</text>
                <text x="84.552px" y="527.38px" style="font-family:'Calibri', sans-serif;font-size:5.208px;fill:rgb(88,88,88);">10</text>
                <text x="81.912px" y="505.46px" style="font-family:'Calibri', sans-serif;font-size:5.208px;fill:rgb(88,88,88);">100</text>
                <text x="79.272px" y="483.58px" style="font-family:'Calibri', sans-serif;font-size:5.208px;fill:rgb(88,88,88);">1000</text>
                <text x="76.632px" y="461.69px" style="font-family:'Calibri', sans-serif;font-size:5.208px;fill:rgb(88,88,88);">10000</text>
                <text x="73.992px" y="439.8px" style="font-family:'Calibri', sans-serif;font-size:5.208px;fill:rgb(88,88,88);">100000</text>
                <text x="71.376px" y="417.89px" style="font-family:'Calibri', sans-serif;font-size:5.208px;fill:rgb(88,88,88);">10000<tspan x="84.456px " y="417.89px ">0</tspan>0</text>
                <text x="68.736px" y="396px" style="font-family:'Calibri', sans-serif;font-size:5.208px;fill:rgb(88,88,88);">10000<tspan x="81.816px " y="396px ">0</tspan>00</text>
                <text x="66.096px" y="374.11px" style="font-family:'Calibri', sans-serif;font-size:5.208px;fill:rgb(88,88,88);">100000000</text>
                <text x="91.344px" y="556.03px" style="font-family:'Calibri', sans-serif;font-size:5.208px;fill:rgb(88,88,88);">1<tspan x="94.68px " y="556.03px ">0</tspan></text>
                <text x="235.39px" y="556.03px" style="font-family:'Calibri', sans-serif;font-size:5.208px;fill:rgb(88,88,88);">1<tspan x="238.726px 242.063px " y="556.03px 556.03px ">00</tspan></text>
                <text x="379.44px" y="556.03px" style="font-family:'Calibri', sans-serif;font-size:5.208px;fill:rgb(88,88,88);">1<tspan x="382.776px 386.113px 389.449px " y="556.03px 556.03px 556.03px ">000</tspan></text>
                <text x="523.49px" y="556.03px" style="font-family:'Calibri', sans-serif;font-size:5.208px;fill:rgb(88,88,88);">1<tspan x="526.826px 530.163px 533.499px 536.836px " y="556.03px 556.03px 556.03px 556.03px ">0000</tspan></text>
                <g transform="matrix(-4.4e-08,-1,1,-4.4e-08,0,0)">
                    <text x="-480.91px" y="62.928px" style="font-family:'Calibri', sans-serif;font-size:5.208px;fill:rgb(88,88,88);">N</text>
                    <text x="-477.572px" y="62.928px" style="font-family:'Calibri', sans-serif;font-size:5.208px;fill:rgb(88,88,88);">OMBRE</text>
                    <text x="-460.198px" y="62.928px" style="font-family:'Calibri', sans-serif;font-size:5.208px;fill:rgb(88,88,88);">D&apos;A</text>
                    <text x="-452.828px" y="62.928px" style="font-family:'Calibri', sans-serif;font-size:5.208px;fill:rgb(88,88,88);">FF</text>
                    <text x="-448.126px" y="62.928px" style="font-family:'Calibri', sans-serif;font-size:5.208px;fill:rgb(88,88,88);">ECTA<tspan x="-437.197px -434.645px " y="62.928px 62.928px ">TI</tspan>O</text>
                    <text x="-429.856px" y="62.928px" style="font-family:'Calibri', sans-serif;font-size:5.208px;fill:rgb(88,88,88);">NS</text>
                </g>
                <g>
                    <text x="289.8px" y="564.12px" style="font-family:'Calibri', sans-serif;font-size:5.208px;fill:rgb(88,88,88);">N</text>
                    <text x="293.138px" y="564.12px" style="font-family:'Calibri', sans-serif;font-size:5.208px;fill:rgb(88,88,88);">OMBRE</text>
                    <text x="310.512px" y="564.12px" style="font-family:'Calibri', sans-serif;font-size:5.208px;fill:rgb(88,88,88);">DE</text>
                    <text x="317.433px" y="564.12px" style="font-family:'Calibri', sans-serif;font-size:5.208px;fill:rgb(88,88,88);">V</text>
                    <text x="320.417px" y="564.12px" style="font-family:'Calibri', sans-serif;font-size:5.208px;fill:rgb(88,88,88);">A</text>
                    <text x="323.391px" y="564.12px" style="font-family:'Calibri', sans-serif;font-size:5.208px;fill:rgb(88,88,88);">LE</text>
                    <text x="328.182px" y="564.12px" style="font-family:'Calibri', sans-serif;font-size:5.208px;fill:rgb(88,88,88);">U</text>
                    <text x="331.526px" y="564.12px" style="font-family:'Calibri', sans-serif;font-size:5.208px;fill:rgb(88,88,88);">RS</text>
                </g>
                <g>
                    <text x="150.17px" y="323.09px" style="font-family:'Calibri-Bold', 'Calibri', sans-serif;font-weight:700;font-size:9.24px;fill:rgb(88,88,88);">N<tspan x="156.945px " y="323.09px ">O</tspan></text>
                    <text x="163.882px" y="323.09px" style="font-family:'Calibri-Bold', 'Calibri', sans-serif;font-weight:700;font-size:9.24px;fill:rgb(88,88,88);">M</text>
                    <text x="172.605px" y="323.09px" style="font-family:'Calibri-Bold', 'Calibri', sans-serif;font-weight:700;font-size:9.24px;fill:rgb(88,88,88);">B<tspan x="178.482px 184.383px " y="323.09px 323.09px ">RE</tspan></text>
                    <text x="192.415px" y="323.09px" style="font-family:'Calibri-Bold', 'Calibri', sans-serif;font-weight:700;font-size:9.24px;fill:rgb(88,88,88);">D</text>
                    <text x="198.938px" y="323.09px" style="font-family:'Calibri-Bold', 'Calibri', sans-serif;font-weight:700;font-size:9.24px;fill:rgb(88,88,88);">&apos;<tspan x="201.77px 208.044px 212.96px 217.876px 222.923px " y="323.09px 323.09px 323.09px 323.09px 323.09px ">AFFEC</tspan></text>
                    <text x="228.534px" y="323.09px" style="font-family:'Calibri-Bold', 'Calibri', sans-serif;font-weight:700;font-size:9.24px;fill:rgb(88,88,88);">TA<tspan x="238.704px " y="323.09px ">T</tspan></text>
                    <text x="244.002px" y="323.09px" style="font-family:'Calibri-Bold', 'Calibri', sans-serif;font-weight:700;font-size:9.24px;fill:rgb(88,88,88);">I<tspan x="247.146px 254.075px 260.842px " y="323.09px 323.09px 323.09px ">ONS</tspan></text>
                    <text x="268.645px" y="323.09px" style="font-family:'Calibri-Bold', 'Calibri', sans-serif;font-weight:700;font-size:9.24px;fill:rgb(88,88,88);">E<tspan x="273.833px " y="323.09px ">N</tspan></text>
                    <text x="283.402px" y="323.09px" style="font-family:'Calibri-Bold', 'Calibri', sans-serif;font-weight:700;font-size:9.24px;fill:rgb(88,88,88);">F<tspan x="288.256px 295.185px 301.952px 307.568px 312.824px 315.968px 322.897px " y="323.09px 323.09px 323.09px 323.09px 323.09px 323.09px 323.09px ">ONCTION</tspan></text>
                    <text x="332.475px" y="323.09px" style="font-family:'Calibri-Bold', 'Calibri', sans-serif;font-weight:700;font-size:9.24px;fill:rgb(88,88,88);">D<tspan x="338.98px " y="323.09px ">U</tspan></text>
                    <text x="348.47px" y="323.09px" style="font-family:'Calibri-Bold', 'Calibri', sans-serif;font-weight:700;font-size:9.24px;fill:rgb(88,88,88);">N<tspan x="355.237px 362.166px " y="323.09px 323.09px ">OM</tspan></text>
                    <text x="370.923px" y="323.09px" style="font-family:'Calibri-Bold', 'Calibri', sans-serif;font-weight:700;font-size:9.24px;fill:rgb(88,88,88);">B<tspan x="376.802px 382.705px " y="323.09px 323.09px ">RE</tspan></text>
                    <text x="390.715px" y="323.09px" style="font-family:'Calibri-Bold', 'Calibri', sans-serif;font-weight:700;font-size:9.24px;fill:rgb(88,88,88);">D<tspan x="397.24px " y="323.09px ">E</tspan></text>
                    <text x="405.203px" y="323.09px" style="font-family:'Calibri-Bold', 'Calibri', sans-serif;font-weight:700;font-size:9.24px;fill:rgb(88,88,88);">V<tspan x="410.875px " y="323.09px ">A</tspan></text>
                    <text x="417.175px" y="323.09px" style="font-family:'Calibri-Bold', 'Calibri', sans-serif;font-weight:700;font-size:9.24px;fill:rgb(88,88,88);">L<tspan x="421.769px 426.963px 433.681px 439.48px " y="323.09px 323.09px 323.09px 323.09px ">EURS</tspan></text>
                    <text x="193.49px" y="334.39px" style="font-family:'Calibri-Bold', 'Calibri', sans-serif;font-weight:700;font-size:9.24px;fill:rgb(88,88,88);">V<tspan x="199.192px " y="334.39px ">A</tspan></text>
                    <text x="205.52px" y="334.39px" style="font-family:'Calibri-Bold', 'Calibri', sans-serif;font-weight:700;font-size:9.24px;fill:rgb(88,88,88);">L<tspan x="210.121px 215.322px 222.048px " y="334.39px 334.39px 334.39px ">EUR</tspan></text>
                    <text x="227.854px" y="334.39px" style="font-family:'Calibri-Bold', 'Calibri', sans-serif;font-weight:700;font-size:9.24px;fill:rgb(88,88,88);">S</text>
                    <text x="235.708px" y="334.39px" style="font-family:'Calibri-Bold', 'Calibri', sans-serif;font-weight:700;font-size:9.24px;fill:rgb(88,88,88);">A</text>
                    <text x="242.029px" y="334.39px" style="font-family:'Calibri-Bold', 'Calibri', sans-serif;font-weight:700;font-size:9.24px;fill:rgb(88,88,88);">L<tspan x="246.613px " y="334.39px ">É</tspan></text>
                    <text x="251.685px" y="334.39px" style="font-family:'Calibri-Bold', 'Calibri', sans-serif;font-weight:700;font-size:9.24px;fill:rgb(88,88,88);">A</text>
                    <text x="257.312px" y="334.39px" style="font-family:'Calibri-Bold', 'Calibri', sans-serif;font-weight:700;font-size:9.24px;fill:rgb(88,88,88);">T<tspan x="262.334px 269.277px 272.435px 278.332px 283.444px " y="334.39px 334.39px 334.39px 334.39px 334.39px ">OIRES</tspan></text>
                    <text x="291.34px" y="334.39px" style="font-family:'Calibri-Bold', 'Calibri', sans-serif;font-weight:700;font-size:9.24px;fill:rgb(88,88,88);">-</text>
                    <text x="297.284px" y="334.39px" style="font-family:'Calibri-Bold', 'Calibri', sans-serif;font-weight:700;font-size:9.24px;fill:rgb(88,88,88);">A<tspan x="303.565px 309.336px " y="334.39px 334.39px ">XE</tspan></text>
                    <text x="317.675px" y="334.39px" style="font-family:'Calibri-Bold', 'Calibri', sans-serif;font-weight:700;font-size:9.24px;fill:rgb(88,88,88);">Y</text>
                    <text x="325.954px" y="334.39px" style="font-family:'Calibri-Bold', 'Calibri', sans-serif;font-weight:700;font-size:9.24px;fill:rgb(88,88,88);">L<tspan x="330.38px 337.311px 343.881px 350.162px " y="334.39px 334.39px 334.39px 334.39px ">OGAR</tspan></text>
                    <text x="356.046px" y="334.39px" style="font-family:'Calibri-Bold', 'Calibri', sans-serif;font-weight:700;font-size:9.24px;fill:rgb(88,88,88);">I<tspan x="359.172px 364.409px 370.901px 379.639px 382.765px 389.767px 396.461px " y="334.39px 334.39px 334.39px 334.39px 334.39px 334.39px 334.39px ">THMIQUE</tspan></text>
                    <text x="217.78px" y="347.538px" style="font-family:'Calibri', sans-serif;font-size:5.208px;fill:rgb(88,88,88);">b</text>
                    <text x="220.493px" y="347.538px" style="font-family:'Calibri', sans-serif;font-size:5.208px;fill:rgb(88,88,88);">u</text>
                    <text x="223.274px" y="347.538px" style="font-family:'Calibri', sans-serif;font-size:5.208px;fill:rgb(88,88,88);">b</text>
                    <text x="225.988px" y="347.538px" style="font-family:'Calibri', sans-serif;font-size:5.208px;fill:rgb(88,88,88);">b</text>
                    <text x="228.769px" y="347.538px" style="font-family:'Calibri', sans-serif;font-size:5.208px;fill:rgb(88,88,88);">le</text>
                </g>
                <g>
                    <text x="251.95px" y="347.54px" style="font-family:'Calibri', sans-serif;font-size:5.208px;fill:rgb(88,88,88);">i</text>
                    <text x="253.127px" y="347.54px" style="font-family:'Calibri', sans-serif;font-size:5.208px;fill:rgb(88,88,88);">n</text>
                    <text x="255.882px" y="347.54px" style="font-family:'Calibri', sans-serif;font-size:5.208px;fill:rgb(88,88,88);">sert</text>
                </g>
                <g>
                    <text x="283.49px" y="347.54px" style="font-family:'Calibri', sans-serif;font-size:5.208px;fill:rgb(88,88,88);">s</text>
                    <text x="285.505px" y="347.54px" style="font-family:'Calibri', sans-serif;font-size:5.208px;fill:rgb(88,88,88);">e</text>
                    <text x="288.141px" y="347.54px" style="font-family:'Calibri', sans-serif;font-size:5.208px;fill:rgb(88,88,88);">le</text>
                    <text x="291.885px" y="347.54px" style="font-family:'Calibri', sans-serif;font-size:5.208px;fill:rgb(88,88,88);">c</text>
                    <path d="M296.495,345.122C296.545,345.122 296.58,345.133 296.599,345.156C296.617,345.179 296.627,345.212 296.627,345.256L296.627,347.476C296.627,347.49 296.623,347.501 296.617,347.511C296.61,347.52 296.598,347.528 296.582,347.535C296.566,347.542 296.545,347.547 296.517,347.55C296.49,347.554 296.457,347.555 296.418,347.555C296.376,347.555 296.341,347.554 296.314,347.55C296.287,347.547 296.265,347.542 296.249,347.535C296.233,347.528 296.222,347.52 296.215,347.511C296.208,347.501 296.205,347.49 296.205,347.476L296.205,345.47L295.022,345.47L295.022,346.747C295.022,346.904 295.045,347.023 295.092,347.104C295.139,347.184 295.222,347.225 295.343,347.225C295.382,347.225 295.416,347.221 295.447,347.213C295.477,347.206 295.504,347.198 295.528,347.189C295.552,347.181 295.572,347.173 295.589,347.165C295.606,347.157 295.621,347.153 295.635,347.153C295.643,347.153 295.652,347.156 295.659,347.16C295.667,347.164 295.673,347.172 295.677,347.184C295.681,347.196 295.685,347.212 295.688,347.232C295.692,347.253 295.694,347.278 295.694,347.309C295.694,347.358 295.69,347.396 295.683,347.424C295.677,347.452 295.666,347.473 295.653,347.488C295.639,347.502 295.619,347.515 295.592,347.527C295.565,347.539 295.534,347.549 295.499,347.557C295.464,347.564 295.427,347.571 295.388,347.576C295.349,347.581 295.31,347.583 295.271,347.583C295.153,347.583 295.051,347.568 294.966,347.536C294.881,347.505 294.812,347.457 294.758,347.394C294.703,347.33 294.664,347.25 294.639,347.152C294.615,347.055 294.603,346.94 294.603,346.808L294.603,345.47L294.282,345.47C294.257,345.47 294.236,345.456 294.221,345.429C294.206,345.402 294.198,345.358 294.198,345.297C294.198,345.265 294.2,345.238 294.205,345.216C294.209,345.194 294.214,345.175 294.221,345.161C294.228,345.147 294.237,345.136 294.248,345.131C294.259,345.125 294.271,345.122 294.285,345.122L294.603,345.122L294.603,344.577C294.603,344.566 294.606,344.555 294.611,344.544C294.617,344.534 294.628,344.525 294.645,344.518C294.661,344.51 294.682,344.505 294.709,344.501C294.736,344.498 294.77,344.496 294.811,344.496C294.853,344.496 294.888,344.498 294.915,344.501C294.942,344.505 294.964,344.51 294.979,344.518C294.994,344.525 295.005,344.534 295.012,344.544C295.019,344.555 295.022,344.566 295.022,344.577L295.022,345.122L296.495,345.122ZM296.675,344.415C296.675,344.513 296.656,344.58 296.619,344.616C296.582,344.651 296.513,344.669 296.413,344.669C296.315,344.669 296.247,344.652 296.211,344.617C296.175,344.582 296.156,344.516 296.156,344.42C296.156,344.321 296.175,344.254 296.212,344.219C296.25,344.183 296.318,344.165 296.418,344.165C296.517,344.165 296.584,344.183 296.62,344.218C296.657,344.252 296.675,344.318 296.675,344.415Z" style="fill:rgb(88,88,88);"/>
                    <text x="296.999px" y="347.54px" style="font-family:'Calibri', sans-serif;font-size:5.208px;fill:rgb(88,88,88);">on</text>
                </g>
                <g>
                    <text x="321.96px" y="347.54px" style="font-family:'Calibri', sans-serif;font-size:5.208px;fill:rgb(88,88,88);">std</text>
                    <text x="328.486px" y="347.54px" style="font-family:'Calibri', sans-serif;font-size:5.208px;fill:rgb(88,88,88);">::</text>
                    <text x="331.277px" y="347.54px" style="font-family:'Calibri', sans-serif;font-size:5.208px;fill:rgb(88,88,88);">s</text>
                    <text x="333.287px" y="347.54px" style="font-family:'Calibri', sans-serif;font-size:5.208px;fill:rgb(88,88,88);">o</text>
                    <text x="336.068px" y="347.54px" style="font-family:'Calibri', sans-serif;font-size:5.208px;fill:rgb(88,88,88);">rt</text>
                </g>
                <g>
                    <text x="359.04px" y="347.54px" style="font-family:'Calibri', sans-serif;font-size:5.208px;fill:rgb(88,88,88);">st</text>
                    <text x="362.785px" y="347.54px" style="font-family:'Calibri', sans-serif;font-size:5.208px;fill:rgb(88,88,88);">d::</text>
                    <text x="368.331px" y="347.54px" style="font-family:'Calibri', sans-serif;font-size:5.208px;fill:rgb(88,88,88);">s</text>
                    <text x="370.341px" y="347.54px" style="font-family:'Calibri', sans-serif;font-size:5.208px;fill:rgb(88,88,88);">t</text>
                    <text x="372.138px" y="347.54px" style="font-family:'Calibri', sans-serif;font-size:5.208px;fill:rgb(88,88,88);">a</text>
                    <text x="374.56px" y="347.54px" style="font-family:'Calibri', sans-serif;font-size:5.208px;fill:rgb(88,88,88);">b</text>
                    <text x="377.315px" y="347.54px" style="font-family:'Calibri', sans-serif;font-size:5.208px;fill:rgb(88,88,88);">le</text>
                    <text x="381.059px" y="347.54px" style="font-family:'Calibri', sans-serif;font-size:5.208px;fill:rgb(88,88,88);">_</text>
                    <text x="383.695px" y="347.54px" style="font-family:'Calibri', sans-serif;font-size:5.208px;fill:rgb(88,88,88);">sort</text>
                </g>
                <g transform="matrix(1,0,0,1,0,-149.7)">
                    <path d="M205.46,495.75L216.57,495.75" style="fill:none;fill-rule:nonzero;stroke:rgb(68,114,196);stroke-width:1.01px;stroke-linecap:round;"/>
                </g>
                <g transform="matrix(1,0,0,1,0,-149.71)">
                    <path d="M212.43,497.21L209.51,494.3M210.97,494.3L210.97,497.21M209.51,497.21L212.43,494.3" style="fill:none;fill-rule:nonzero;stroke:rgb(68,114,196);stroke-width:0.43px;"/>
                </g>
                <g transform="matrix(1,0,0,1,0,-149.7)">
                    <path d="M239.62,495.75L250.72,495.75" style="fill:none;fill-rule:nonzero;stroke:rgb(237,125,49);stroke-width:1.01px;stroke-linecap:round;"/>
                </g>
                <g transform="matrix(1,0,0,1,0,-149.71)">
                    <path d="M246.59,497.21L243.67,494.3M245.13,494.3L245.13,497.21M243.67,497.21L246.59,494.3" style="fill:none;fill-rule:nonzero;stroke:rgb(237,125,49);stroke-width:0.43px;"/>
                </g>
                <g transform="matrix(1,0,0,1,0,-149.7)">
                    <path d="M271.16,495.75L282.26,495.75" style="fill:none;fill-rule:nonzero;stroke:rgb(166,166,166);stroke-width:1.01px;stroke-linecap:round;stroke-dasharray:2.03,2.03;"/>
                </g>
                <g transform="matrix(0,-1,-1,0,772.405,622.695)">
                    <ellipse cx="276.65" cy="495.755" rx="1.455" ry="1.46" style="fill:rgb(166,166,166);stroke:rgb(166,166,166);stroke-width:0.43px;"/>
                </g>
                <g transform="matrix(1,0,0,1,0,-149.7)">
                    <path d="M309.61,495.75L320.72,495.75" style="fill:none;fill-rule:nonzero;stroke:rgb(255,192,0);stroke-width:1.01px;stroke-linecap:round;"/>
                </g>
                <g transform="matrix(1,0,0,1,0,-149.71)">
                    <path d="M316.57,497.21L313.65,494.3M315.11,494.3L315.11,497.21M313.65,497.21L316.57,494.3" style="fill:none;fill-rule:nonzero;stroke:rgb(255,192,0);stroke-width:0.43px;"/>
                </g>
                <g transform="matrix(1,0,0,1,0,-149.7)">
                    <path d="M346.68,495.75L357.79,495.75" style="fill:none;fill-rule:nonzero;stroke:rgb(91,155,213);stroke-width:1.01px;stroke-linecap:round;"/>
                </g>
                <g transform="matrix(1,0,0,1,0,-149.71)">
                    <path d="M353.64,497.21L350.73,494.3M352.19,494.3L352.19,497.21M350.73,497.21L353.64,494.3" style="fill:rgb(91,155,213);fill-rule:nonzero;stroke:rgb(91,155,213);stroke-width:0.43px;"/>
                </g>
                <g transform="matrix(1,0,0,1,0,40.8)">
                    <rect x="50.757" y="269.09" width="493.91" height="262.82" style="fill:none;stroke:rgb(218,218,218);stroke-width:0.43px;"/>
                </g>
            </g>
        </g>
    </g>
</svg>
