<?xml version="1.0" encoding="UTF-8" standalone="no"?>
<!DOCTYPE svg PUBLIC "-//W3C//DTD SVG 1.1//EN" "http://www.w3.org/Graphics/SVG/1.1/DTD/svg11.dtd">
<svg width="100%" height="100%" viewBox="0 0 494 236" version="1.1" xmlns="http://www.w3.org/2000/svg" xmlns:xlink="http://www.w3.org/1999/xlink" xml:space="preserve" xmlns:serif="http://www.serif.com/" style="fill-rule:evenodd;clip-rule:evenodd;stroke-linejoin:round;stroke-miterlimit:10;">
    <g transform="matrix(1,0,0,1,-50.684,-323.76)">
        <g transform="matrix(1,0,0,1,0,40.83)">
            <rect x="50.684" y="282.93" width="493.87" height="235.11" style="fill:white;"/>
        </g>
        <g transform="matrix(1,0,0,1,0,46.5)">
            <path d="M99.612,465.21L530.11,465.21M99.612,445.94L530.11,445.94M99.612,426.59L530.11,426.59M99.612,407.33L530.11,407.33M99.612,387.98L530.11,387.98M99.612,368.71L530.11,368.71M99.612,349.37L530.11,349.37M99.612,330.09L530.11,330.09" style="fill:none;fill-rule:nonzero;stroke:rgb(218,218,218);stroke-width:0.48px;"/>
        </g>
        <g transform="matrix(1,0,0,1,0,65.81)">
            <path d="M243.1,310.78L243.1,465.21M386.57,310.78L386.57,465.21M530.11,310.78L530.11,465.21" style="fill:none;fill-rule:nonzero;stroke:rgb(218,218,218);stroke-width:0.48px;"/>
        </g>
        <g transform="matrix(6.47543e-06,-1,-1,-6.47543e-06,487.607,553.42)">
            <path d="M22.397,387.995L176.828,387.995" style="fill:none;fill-rule:nonzero;stroke:rgb(218,218,218);stroke-width:0.48px;"/>
        </g>
        <g transform="matrix(1,0,0,1,0,220.24)">
            <path d="M99.612,310.78L530.11,310.78" style="fill:none;fill-rule:nonzero;stroke:rgb(218,218,218);stroke-width:0.48px;"/>
        </g>
        <g transform="matrix(1,0,0,1,0,39.71)">
            <clipPath id="_clip1">
                <rect x="99.558" y="336.81" width="431.02" height="154.92"/>
            </clipPath>
            <g clip-path="url(#_clip1)">
                <path d="M99.612,459.4L243.1,420L386.57,381.3L530.11,342.69" style="fill:none;fill-rule:nonzero;stroke:rgb(68,114,196);stroke-width:1.13px;stroke-linecap:round;"/>
            </g>
        </g>
        <g transform="matrix(1,0,0,1,0,156.41)">
            <path d="M101.6,344.63L97.733,340.76M97.733,344.63L101.6,340.76" style="fill:none;fill-rule:nonzero;stroke:rgb(68,114,196);stroke-width:0.48px;"/>
        </g>
        <g transform="matrix(1,0,0,1,0,77.63)">
            <path d="M245.07,384.02L241.2,380.15M241.2,384.02L245.07,380.15" style="fill:none;fill-rule:nonzero;stroke:rgb(68,114,196);stroke-width:0.48px;"/>
        </g>
        <g transform="matrix(1,0,0,1,0,0.25)">
            <path d="M388.54,422.71L384.67,418.84M384.67,422.71L388.54,418.84" style="fill:none;fill-rule:nonzero;stroke:rgb(68,114,196);stroke-width:0.48px;"/>
        </g>
        <g transform="matrix(1,0,0,1,0,-76.99)">
            <path d="M532.08,461.33L528.21,457.46M528.21,461.33L532.08,457.46" style="fill:none;fill-rule:nonzero;stroke:rgb(68,114,196);stroke-width:0.48px;"/>
        </g>
        <g transform="matrix(1,0,0,1,0,124.6)">
            <clipPath id="_clip2">
                <rect x="99.558" y="251.92" width="431.02" height="154.92"/>
            </clipPath>
            <g clip-path="url(#_clip2)">
                <path d="M99.612,388L243.1,367.92L386.57,348.49L530.11,329.2" style="fill:none;fill-rule:nonzero;stroke:rgb(237,125,49);stroke-width:1.13px;stroke-linecap:round;"/>
            </g>
        </g>
        <g transform="matrix(1,0,0,1,0,183.49)">
            <path d="M101.6,331.09L97.733,327.22M99.668,327.22L99.668,331.09M97.733,331.09L101.6,327.22" style="fill:none;fill-rule:nonzero;stroke:rgb(237,125,49);stroke-width:0.48px;"/>
        </g>
        <g transform="matrix(1,0,0,1,0,143.25)">
            <path d="M245.07,351.21L241.2,347.34M243.14,347.34L243.14,351.21M241.2,351.21L245.07,347.34" style="fill:none;fill-rule:nonzero;stroke:rgb(237,125,49);stroke-width:0.48px;"/>
        </g>
        <g transform="matrix(1,0,0,1,0,104.41)">
            <path d="M388.54,370.63L384.67,366.76M386.6,366.76L386.6,370.63M384.67,370.63L388.54,366.76" style="fill:none;fill-rule:nonzero;stroke:rgb(237,125,49);stroke-width:0.48px;"/>
        </g>
        <g transform="matrix(1,0,0,1,0,65.87)">
            <path d="M532.08,389.9L528.21,386.03M530.15,386.03L530.15,389.9M528.21,389.9L532.08,386.03" style="fill:none;fill-rule:nonzero;stroke:rgb(237,125,49);stroke-width:0.48px;"/>
        </g>
        <g transform="matrix(1,0,0,1,0,39.71)">
            <clipPath id="_clip3">
                <rect x="99.558" y="336.81" width="431.02" height="154.92"/>
            </clipPath>
            <g clip-path="url(#_clip3)">
                <path d="M99.612,459.4L243.1,420L386.57,381.3L530.11,342.69" style="fill:none;fill-rule:nonzero;stroke:rgb(166,166,166);stroke-width:1.13px;stroke-linecap:round;stroke-dasharray:2.26,2.26;"/>
            </g>
        </g>
        <g transform="matrix(1,0,0,1,0,156.411)">
            <rect x="97.733" y="340.76" width="3.869" height="3.869" style="fill:rgb(166,166,166);stroke:rgb(255,192,0);stroke-width:0.16px;"/>
        </g>
        <g transform="matrix(1,0,0,1,0,77.6309)">
            <rect x="241.2" y="380.15" width="3.869" height="3.869" style="fill:rgb(166,166,166);stroke:rgb(255,192,0);stroke-width:0.16px;"/>
        </g>
        <g transform="matrix(1,0,0,1,0,0.2509)">
            <rect x="384.67" y="418.84" width="3.869" height="3.869" style="fill:rgb(166,166,166);stroke:rgb(255,192,0);stroke-width:0.16px;"/>
        </g>
        <g transform="matrix(1,0,0,1,0,-76.9891)">
            <rect x="528.21" y="457.46" width="3.869" height="3.869" style="fill:rgb(166,166,166);stroke:rgb(255,192,0);stroke-width:0.16px;"/>
        </g>
        <g transform="matrix(1,0,0,1,0,156.41)">
            <path d="M101.6,344.63L97.733,340.76M99.668,340.76L99.668,344.63M97.733,344.63L101.6,340.76" style="fill:rgb(166,166,166);fill-rule:nonzero;stroke:rgb(166,166,166);stroke-width:0.48px;"/>
        </g>
        <g transform="matrix(1,0,0,1,0,77.63)">
            <path d="M245.07,384.02L241.2,380.15M243.14,380.15L243.14,384.02M241.2,384.02L245.07,380.15" style="fill:rgb(166,166,166);fill-rule:nonzero;stroke:rgb(166,166,166);stroke-width:0.48px;"/>
        </g>
        <g transform="matrix(1,0,0,1,0,0.25)">
            <path d="M388.54,422.71L384.67,418.84M386.6,418.84L386.6,422.71M384.67,422.71L388.54,418.84" style="fill:rgb(166,166,166);fill-rule:nonzero;stroke:rgb(166,166,166);stroke-width:0.48px;"/>
        </g>
        <g transform="matrix(1,0,0,1,0,-76.99)">
            <path d="M532.08,461.33L528.21,457.46M530.15,457.46L530.15,461.33M528.21,461.33L532.08,457.46" style="fill:rgb(166,166,166);fill-rule:nonzero;stroke:rgb(166,166,166);stroke-width:0.48px;"/>
        </g>
        <g transform="matrix(1,0,0,1,0,95.21)">
            <clipPath id="_clip4">
                <rect x="99.558" y="281.31" width="431.02" height="154.92"/>
            </clipPath>
            <g clip-path="url(#_clip4)">
                <path d="M99.612,411.58L243.1,381.75L386.57,358.07L530.11,335.01" style="fill:none;fill-rule:nonzero;stroke:rgb(255,192,0);stroke-width:1.13px;stroke-linecap:round;"/>
            </g>
        </g>
        <g transform="matrix(0,-1,-1,0,434.701,606.431)">
            <ellipse cx="99.667" cy="335.035" rx="1.935" ry="1.933" style="fill:rgb(255,192,0);stroke:rgb(255,192,0);stroke-width:0.48px;"/>
        </g>
        <g transform="matrix(0,-1,-1,0,607.96,720.11)">
            <circle cx="243.135" cy="364.825" r="1.935" style="fill:rgb(255,192,0);stroke:rgb(255,192,0);stroke-width:0.48px;"/>
        </g>
        <g transform="matrix(0,-1,-1,0,775.11,839.9)">
            <circle cx="386.605" cy="388.505" r="1.935" style="fill:rgb(255,192,0);stroke:rgb(255,192,0);stroke-width:0.48px;"/>
        </g>
        <g transform="matrix(0,-1,-1,0,941.71,960.38)">
            <circle cx="530.145" cy="411.565" r="1.935" style="fill:rgb(255,192,0);stroke:rgb(255,192,0);stroke-width:0.48px;"/>
        </g>
        <g transform="matrix(1,0,0,1,0,100.78)">
            <clipPath id="_clip5">
                <rect x="99.558" y="275.74" width="431.02" height="154.92"/>
            </clipPath>
            <g clip-path="url(#_clip5)">
                <path d="M99.612,404.72L243.1,380.28L386.57,357.38L530.11,336.3" style="fill:none;fill-rule:nonzero;stroke:rgb(91,155,213);stroke-width:1.13px;stroke-linecap:round;"/>
            </g>
        </g>
        <g transform="matrix(1,0,0,1,0,169.25)">
            <path d="M101.6,338.21L97.733,334.34M99.668,334.34L99.668,338.21M97.733,338.21L101.6,334.34" style="fill:rgb(91,155,213);fill-rule:nonzero;stroke:rgb(91,155,213);stroke-width:0.48px;"/>
        </g>
        <g transform="matrix(1,0,0,1,0,120.35)">
            <path d="M245.07,362.66L241.2,358.79M243.14,358.79L243.14,362.66M241.2,362.66L245.07,358.79" style="fill:rgb(91,155,213);fill-rule:nonzero;stroke:rgb(91,155,213);stroke-width:0.48px;"/>
        </g>
        <g transform="matrix(1,0,0,1,0,74.53)">
            <path d="M388.54,385.57L384.67,381.7M386.6,381.7L386.6,385.57M384.67,385.57L388.54,381.7" style="fill:rgb(91,155,213);fill-rule:nonzero;stroke:rgb(91,155,213);stroke-width:0.48px;"/>
        </g>
        <g transform="matrix(1,0,0,1,0,32.43)">
            <path d="M532.08,406.62L528.21,402.75M530.15,402.75L530.15,406.62M528.21,406.62L532.08,402.75" style="fill:rgb(91,155,213);fill-rule:nonzero;stroke:rgb(91,155,213);stroke-width:0.48px;"/>
        </g>
        <text x="91.296px" y="532.73px" style="font-family:'Calibri', sans-serif;font-size:5.784px;fill:rgb(88,88,88);">1</text>
        <text x="88.368px" y="513.41px" style="font-family:'Calibri', sans-serif;font-size:5.808px;fill:rgb(88,88,88);">10</text>
        <text x="85.416px" y="494.11px" style="font-family:'Calibri', sans-serif;font-size:5.808px;fill:rgb(88,88,88);">100</text>
        <text x="82.464px" y="474.79px" style="font-family:'Calibri', sans-serif;font-size:5.808px;fill:rgb(88,88,88);">1000</text>
        <text x="79.536px" y="455.5px" style="font-family:'Calibri', sans-serif;font-size:5.808px;fill:rgb(88,88,88);">10000</text>
        <text x="76.584px" y="436.18px" style="font-family:'Calibri', sans-serif;font-size:5.808px;fill:rgb(88,88,88);">100000</text>
        <text x="73.656px" y="416.88px" style="font-family:'Calibri', sans-serif;font-size:5.808px;fill:rgb(88,88,88);">1000000</text>
        <text x="70.704px" y="397.56px" style="font-family:'Calibri', sans-serif;font-size:5.808px;fill:rgb(88,88,88);">10000000</text>
        <text x="67.776px" y="378.26px" style="font-family:'Calibri', sans-serif;font-size:5.808px;fill:rgb(88,88,88);">1000000<tspan x="88.272px " y="378.26px ">0</tspan>0</text>
        <text x="95.904px" y="540.26px" style="font-family:'Calibri', sans-serif;font-size:5.808px;fill:rgb(88,88,88);">1<tspan x="99.624px " y="540.26px ">0</tspan></text>
        <text x="237.58px" y="540.26px" style="font-family:'Calibri', sans-serif;font-size:5.808px;fill:rgb(88,88,88);">1<tspan x="241.3px 245.019px " y="540.26px 540.26px ">00</tspan></text>
        <text x="379.25px" y="540.26px" style="font-family:'Calibri', sans-serif;font-size:5.808px;fill:rgb(88,88,88);">1<tspan x="382.97px 386.689px 390.409px " y="540.26px 540.26px 540.26px ">000</tspan></text>
        <text x="520.92px" y="540.26px" style="font-family:'Calibri', sans-serif;font-size:5.808px;fill:rgb(88,88,88);">1<tspan x="524.64px 528.359px 532.079px 535.799px " y="540.26px 540.26px 540.26px 540.26px ">0000</tspan></text>
        <g transform="matrix(-4.4e-08,-1,1,-4.4e-08,0,0)">
            <text x="-490.34px" y="64.248px" style="font-family:'Calibri', sans-serif;font-size:5.808px;fill:rgb(88,88,88);">N</text>
            <text x="-486.623px" y="64.248px" style="font-family:'Calibri', sans-serif;font-size:5.808px;fill:rgb(88,88,88);">O</text>
            <text x="-482.743px" y="64.248px" style="font-family:'Calibri', sans-serif;font-size:5.808px;fill:rgb(88,88,88);">M</text>
            <text x="-477.777px" y="64.248px" style="font-family:'Calibri', sans-serif;font-size:5.808px;fill:rgb(88,88,88);">BRE</text>
            <text x="-467.177px" y="64.248px" style="font-family:'Calibri', sans-serif;font-size:5.808px;fill:rgb(88,88,88);">D</text>
            <text x="-463.605px" y="64.248px" style="font-family:'Calibri', sans-serif;font-size:5.808px;fill:rgb(88,88,88);">E</text>
            <text x="-459.367px" y="64.248px" style="font-family:'Calibri', sans-serif;font-size:5.808px;fill:rgb(88,88,88);">C</text>
            <text x="-456.271px" y="64.248px" style="font-family:'Calibri', sans-serif;font-size:5.808px;fill:rgb(88,88,88);">O</text>
            <text x="-452.38px" y="64.248px" style="font-family:'Calibri', sans-serif;font-size:5.808px;fill:rgb(88,88,88);">MPA</text>
            <text x="-441.06px" y="64.248px" style="font-family:'Calibri', sans-serif;font-size:5.808px;fill:rgb(88,88,88);">R</text>
            <text x="-437.871px" y="64.248px" style="font-family:'Calibri', sans-serif;font-size:5.808px;fill:rgb(88,88,88);">A</text>
            <text x="-434.537px" y="64.248px" style="font-family:'Calibri', sans-serif;font-size:5.808px;fill:rgb(88,88,88);">I</text>
            <text x="-433.056px" y="64.248px" style="font-family:'Calibri', sans-serif;font-size:5.808px;fill:rgb(88,88,88);">S</text>
            <text x="-430.414px" y="64.248px" style="font-family:'Calibri', sans-serif;font-size:5.808px;fill:rgb(88,88,88);">O</text>
            <text x="-426.534px" y="64.248px" style="font-family:'Calibri', sans-serif;font-size:5.808px;fill:rgb(88,88,88);">NS</text>
        </g>
        <g>
            <text x="288.77px" y="549.29px" style="font-family:'Calibri', sans-serif;font-size:5.808px;fill:rgb(88,88,88);">N</text>
            <text x="292.487px" y="549.29px" style="font-family:'Calibri', sans-serif;font-size:5.808px;fill:rgb(88,88,88);">OMBRE DE</text>
            <text x="319.573px" y="549.29px" style="font-family:'Calibri', sans-serif;font-size:5.808px;fill:rgb(88,88,88);">V</text>
            <text x="322.912px" y="549.29px" style="font-family:'Calibri', sans-serif;font-size:5.808px;fill:rgb(88,88,88);">A</text>
            <text x="326.246px" y="549.29px" style="font-family:'Calibri', sans-serif;font-size:5.808px;fill:rgb(88,88,88);">LEURS</text>
        </g>
        <g>
            <text x="126.1px" y="338.45px" style="font-family:'Calibri-Bold', 'Calibri', sans-serif;font-weight:700;font-size:10.296px;fill:rgb(88,88,88);">N<tspan x="133.659px " y="338.45px ">O</tspan></text>
            <text x="141.4px" y="338.45px" style="font-family:'Calibri-Bold', 'Calibri', sans-serif;font-weight:700;font-size:10.296px;fill:rgb(88,88,88);">M</text>
            <text x="151.13px" y="338.45px" style="font-family:'Calibri-Bold', 'Calibri', sans-serif;font-weight:700;font-size:10.296px;fill:rgb(88,88,88);">B<tspan x="157.678px 164.252px " y="338.45px 338.45px ">RE</tspan></text>
            <text x="173.225px" y="338.45px" style="font-family:'Calibri-Bold', 'Calibri', sans-serif;font-weight:700;font-size:10.296px;fill:rgb(88,88,88);">D<tspan x="180.492px " y="338.45px ">E</tspan></text>
            <text x="189.369px" y="338.45px" style="font-family:'Calibri-Bold', 'Calibri', sans-serif;font-weight:700;font-size:10.296px;fill:rgb(88,88,88);">C<tspan x="195.493px 203.206px 212.955px " y="338.45px 338.45px 338.45px ">OMP</tspan></text>
            <text x="218.486px" y="338.45px" style="font-family:'Calibri-Bold', 'Calibri', sans-serif;font-weight:700;font-size:10.296px;fill:rgb(88,88,88);">A<tspan x="225.504px 232.08px " y="338.45px 338.45px ">RA</tspan></text>
            <text x="239.099px" y="338.45px" style="font-family:'Calibri-Bold', 'Calibri', sans-serif;font-weight:700;font-size:10.296px;fill:rgb(88,88,88);">I<tspan x="242.593px 248.21px " y="338.45px 338.45px ">SO</tspan></text>
            <text x="255.922px" y="338.45px" style="font-family:'Calibri-Bold', 'Calibri', sans-serif;font-weight:700;font-size:10.296px;fill:rgb(88,88,88);">N<tspan x="263.479px " y="338.45px ">S</tspan></text>
            <text x="272.293px" y="338.45px" style="font-family:'Calibri-Bold', 'Calibri', sans-serif;font-weight:700;font-size:10.296px;fill:rgb(88,88,88);">E<tspan x="278.09px " y="338.45px ">N</tspan></text>
            <text x="288.756px" y="338.45px" style="font-family:'Calibri-Bold', 'Calibri', sans-serif;font-weight:700;font-size:10.296px;fill:rgb(88,88,88);">F<tspan x="294.181px 301.919px 309.476px 315.75px " y="338.45px 338.45px 338.45px 338.45px ">ONCT</tspan></text>
            <text x="321.623px" y="338.45px" style="font-family:'Calibri-Bold', 'Calibri', sans-serif;font-weight:700;font-size:10.296px;fill:rgb(88,88,88);">I<tspan x="325.11px " y="338.45px ">O</tspan></text>
            <text x="332.815px" y="338.45px" style="font-family:'Calibri-Bold', 'Calibri', sans-serif;font-weight:700;font-size:10.296px;fill:rgb(88,88,88);">N</text>
            <text x="343.593px" y="338.45px" style="font-family:'Calibri-Bold', 'Calibri', sans-serif;font-weight:700;font-size:10.296px;fill:rgb(88,88,88);">D<tspan x="350.864px " y="338.45px ">U</tspan></text>
            <text x="361.446px" y="338.45px" style="font-family:'Calibri-Bold', 'Calibri', sans-serif;font-weight:700;font-size:10.296px;fill:rgb(88,88,88);">N<tspan x="369.009px " y="338.45px ">O</tspan></text>
            <text x="376.752px" y="338.45px" style="font-family:'Calibri-Bold', 'Calibri', sans-serif;font-weight:700;font-size:10.296px;fill:rgb(88,88,88);">M</text>
            <text x="386.482px" y="338.45px" style="font-family:'Calibri-Bold', 'Calibri', sans-serif;font-weight:700;font-size:10.296px;fill:rgb(88,88,88);">B<tspan x="393.032px 399.607px " y="338.45px 338.45px ">RE</tspan></text>
            <text x="408.499px" y="338.45px" style="font-family:'Calibri-Bold', 'Calibri', sans-serif;font-weight:700;font-size:10.296px;fill:rgb(88,88,88);">D<tspan x="415.768px " y="338.45px ">E</tspan></text>
            <text x="424.715px" y="338.45px" style="font-family:'Calibri-Bold', 'Calibri', sans-serif;font-weight:700;font-size:10.296px;fill:rgb(88,88,88);">V<tspan x="431.034px 438.051px 443.183px 448.984px 456.484px 462.959px " y="338.45px 338.45px 338.45px 338.45px 338.45px 338.45px ">ALEURS</tspan></text>
            <text x="170.9px" y="351.066px" style="font-family:'Calibri-Bold', 'Calibri', sans-serif;font-weight:700;font-size:10.296px;fill:rgb(88,88,88);">V<tspan x="177.248px " y="351.066px ">A</tspan></text>
            <text x="184.295px" y="351.066px" style="font-family:'Calibri-Bold', 'Calibri', sans-serif;font-weight:700;font-size:10.296px;fill:rgb(88,88,88);">L<tspan x="189.425px 195.224px 202.722px 209.194px " y="351.066px 351.066px 351.066px 351.066px ">EURS</tspan></text>
            <text x="217.942px" y="351.066px" style="font-family:'Calibri-Bold', 'Calibri', sans-serif;font-weight:700;font-size:10.296px;fill:rgb(88,88,88);">D<tspan x="225.209px 230.857px 237.083px 243.555px 251.294px 254.815px 260.458px 265.975px 272.991px 280.549px 286.423px 292.121px " y="351.066px 351.066px 351.066px 351.066px 351.066px 351.066px 351.066px 351.066px 351.066px 351.066px 351.066px 351.066px ">ÉCROISSANTES</tspan></text>
            <text x="301.01px" y="351.066px" style="font-family:'Calibri-Bold', 'Calibri', sans-serif;font-weight:700;font-size:10.296px;fill:rgb(88,88,88);">-</text>
            <text x="307.624px" y="351.066px" style="font-family:'Calibri-Bold', 'Calibri', sans-serif;font-weight:700;font-size:10.296px;fill:rgb(88,88,88);">A<tspan x="314.63px 321.069px " y="351.066px 351.066px ">XE</tspan></text>
            <text x="330.464px" y="351.066px" style="font-family:'Calibri-Bold', 'Calibri', sans-serif;font-weight:700;font-size:10.296px;fill:rgb(88,88,88);">Y</text>
            <text x="339.658px" y="351.066px" style="font-family:'Calibri-Bold', 'Calibri', sans-serif;font-weight:700;font-size:10.296px;fill:rgb(88,88,88);">L<tspan x="344.599px 352.33px 359.658px 366.665px " y="351.066px 351.066px 351.066px 351.066px ">OGAR</tspan></text>
            <text x="373.23px" y="351.066px" style="font-family:'Calibri-Bold', 'Calibri', sans-serif;font-weight:700;font-size:10.296px;fill:rgb(88,88,88);">I<tspan x="376.719px 382.561px 389.801px 399.544px 403.033px " y="351.066px 351.066px 351.066px 351.066px 351.066px ">THMIQ</tspan></text>
            <text x="410.841px" y="351.066px" style="font-family:'Calibri-Bold', 'Calibri', sans-serif;font-weight:700;font-size:10.296px;fill:rgb(88,88,88);">U<tspan x="418.347px " y="351.066px ">E</tspan></text>
            <text x="208.51px" y="365.734px" style="font-family:'Calibri', sans-serif;font-size:5.808px;fill:rgb(88,88,88);">b</text>
            <text x="211.536px" y="365.734px" style="font-family:'Calibri', sans-serif;font-size:5.808px;fill:rgb(88,88,88);">u</text>
            <text x="214.626px" y="365.734px" style="font-family:'Calibri', sans-serif;font-size:5.808px;fill:rgb(88,88,88);">b</text>
            <text x="217.652px" y="365.734px" style="font-family:'Calibri', sans-serif;font-size:5.808px;fill:rgb(88,88,88);">b</text>
            <text x="220.742px" y="365.734px" style="font-family:'Calibri', sans-serif;font-size:5.808px;fill:rgb(88,88,88);">le</text>
        </g>
        <g>
            <text x="246.6px" y="365.74px" style="font-family:'Calibri', sans-serif;font-size:5.808px;fill:rgb(88,88,88);">in</text>
            <text x="251.008px" y="365.74px" style="font-family:'Calibri', sans-serif;font-size:5.808px;fill:rgb(88,88,88);">se</text>
            <text x="256.096px" y="365.74px" style="font-family:'Calibri', sans-serif;font-size:5.808px;fill:rgb(88,88,88);">rt</text>
        </g>
        <g>
            <text x="281.76px" y="365.74px" style="font-family:'Calibri', sans-serif;font-size:5.808px;fill:rgb(88,88,88);">s</text>
            <text x="283.99px" y="365.74px" style="font-family:'Calibri', sans-serif;font-size:5.808px;fill:rgb(88,88,88);">e</text>
            <text x="286.935px" y="365.74px" style="font-family:'Calibri', sans-serif;font-size:5.808px;fill:rgb(88,88,88);">l</text>
            <text x="288.271px" y="365.74px" style="font-family:'Calibri', sans-serif;font-size:5.808px;fill:rgb(88,88,88);">e</text>
            <path d="M296.229,363.043C296.286,363.043 296.324,363.056 296.345,363.081C296.366,363.107 296.376,363.144 296.376,363.193L296.376,365.669C296.376,365.684 296.373,365.697 296.365,365.707C296.358,365.718 296.345,365.727 296.327,365.734C296.309,365.742 296.285,365.748 296.255,365.751C296.224,365.755 296.187,365.757 296.144,365.757C296.097,365.757 296.058,365.755 296.028,365.751C295.997,365.748 295.973,365.742 295.955,365.734C295.937,365.727 295.925,365.718 295.917,365.707C295.909,365.697 295.906,365.684 295.906,365.669L295.906,363.432L294.587,363.432L294.587,364.855C294.587,365.031 294.613,365.164 294.665,365.254C294.717,365.343 294.81,365.388 294.944,365.388C294.988,365.388 295.027,365.384 295.061,365.376C295.095,365.367 295.125,365.358 295.151,365.349C295.178,365.339 295.201,365.33 295.219,365.322C295.238,365.313 295.255,365.309 295.27,365.309C295.28,365.309 295.289,365.311 295.297,365.316C295.306,365.321 295.313,365.33 295.317,365.343C295.322,365.356 295.326,365.374 295.33,365.397C295.334,365.42 295.336,365.448 295.336,365.482C295.336,365.537 295.332,365.58 295.324,365.611C295.317,365.642 295.305,365.666 295.29,365.682C295.275,365.698 295.253,365.713 295.222,365.726C295.192,365.739 295.157,365.75 295.119,365.758C295.08,365.767 295.039,365.774 294.995,365.78C294.952,365.785 294.908,365.788 294.865,365.788C294.733,365.788 294.619,365.771 294.525,365.736C294.43,365.701 294.353,365.648 294.292,365.577C294.232,365.506 294.188,365.416 294.16,365.308C294.133,365.199 294.119,365.071 294.119,364.923L294.119,363.432L293.762,363.432C293.733,363.432 293.711,363.416 293.694,363.386C293.677,363.356 293.668,363.307 293.668,363.239C293.668,363.203 293.671,363.173 293.675,363.148C293.68,363.123 293.686,363.103 293.694,363.087C293.701,363.071 293.711,363.06 293.723,363.053C293.736,363.046 293.749,363.043 293.765,363.043L294.119,363.043L294.119,362.436C294.119,362.423 294.122,362.411 294.129,362.399C294.136,362.388 294.148,362.378 294.166,362.369C294.184,362.361 294.208,362.355 294.238,362.351C294.268,362.347 294.306,362.345 294.352,362.345C294.399,362.345 294.438,362.347 294.468,362.351C294.498,362.355 294.522,362.361 294.539,362.369C294.556,362.378 294.568,362.388 294.576,362.399C294.583,362.411 294.587,362.423 294.587,362.436L294.587,363.043L296.229,363.043ZM296.43,362.255C296.43,362.364 296.41,362.439 296.368,362.479C296.326,362.518 296.25,362.538 296.138,362.538C296.029,362.538 295.953,362.519 295.913,362.48C295.872,362.441 295.852,362.368 295.852,362.26C295.852,362.151 295.873,362.076 295.914,362.036C295.956,361.997 296.032,361.977 296.144,361.977C296.254,361.977 296.329,361.996 296.369,362.035C296.41,362.074 296.43,362.147 296.43,362.255Z" style="fill:rgb(88,88,88);"/>
            <text x="291.111px" y="365.74px" style="font-family:'Calibri', sans-serif;font-size:5.808px;fill:rgb(88,88,88);">c<tspan x="296.818px " y="365.74px ">o</tspan>n</text>
        </g>
        <g>
            <text x="324.62px" y="365.74px" style="font-family:'Calibri', sans-serif;font-size:5.808px;fill:rgb(88,88,88);">st</text>
            <text x="328.837px" y="365.74px" style="font-family:'Calibri', sans-serif;font-size:5.808px;fill:rgb(88,88,88);">d::sort</text>
        </g>
        <g>
            <text x="365.95px" y="365.74px" style="font-family:'Calibri', sans-serif;font-size:5.808px;fill:rgb(88,88,88);">st</text>
            <text x="370.167px" y="365.74px" style="font-family:'Calibri', sans-serif;font-size:5.808px;fill:rgb(88,88,88);">d::</text>
            <text x="376.352px" y="365.74px" style="font-family:'Calibri', sans-serif;font-size:5.808px;fill:rgb(88,88,88);">s</text>
            <text x="378.623px" y="365.74px" style="font-family:'Calibri', sans-serif;font-size:5.808px;fill:rgb(88,88,88);">t</text>
            <text x="380.627px" y="365.74px" style="font-family:'Calibri', sans-serif;font-size:5.808px;fill:rgb(88,88,88);">a</text>
            <text x="383.339px" y="365.74px" style="font-family:'Calibri', sans-serif;font-size:5.808px;fill:rgb(88,88,88);">b</text>
            <text x="386.429px" y="365.74px" style="font-family:'Calibri', sans-serif;font-size:5.808px;fill:rgb(88,88,88);">l</text>
            <text x="387.765px" y="365.74px" style="font-family:'Calibri', sans-serif;font-size:5.808px;fill:rgb(88,88,88);">e</text>
            <text x="390.628px" y="365.74px" style="font-family:'Calibri', sans-serif;font-size:5.808px;fill:rgb(88,88,88);">_</text>
            <text x="393.573px" y="365.74px" style="font-family:'Calibri', sans-serif;font-size:5.808px;fill:rgb(88,88,88);">sort</text>
        </g>
        <g transform="matrix(1,0,0,1,0,-113.7)">
            <path d="M194.8,477.75L207.18,477.75" style="fill:none;fill-rule:nonzero;stroke:rgb(68,114,196);stroke-width:1.13px;stroke-linecap:round;"/>
        </g>
        <g transform="matrix(1,0,0,1,0,-113.83)">
            <path d="M202.55,479.44L199.3,476.19M199.3,479.44L202.55,476.19" style="fill:none;fill-rule:nonzero;stroke:rgb(68,114,196);stroke-width:0.48px;"/>
        </g>
        <g transform="matrix(1,0,0,1,0,-113.7)">
            <path d="M232.86,477.75L245.25,477.75" style="fill:none;fill-rule:nonzero;stroke:rgb(237,125,49);stroke-width:1.13px;stroke-linecap:round;"/>
        </g>
        <g transform="matrix(1,0,0,1,0,-113.83)">
            <path d="M240.63,479.44L237.38,476.19M239,476.19L239,479.44M237.38,479.44L240.63,476.19" style="fill:none;fill-rule:nonzero;stroke:rgb(237,125,49);stroke-width:0.48px;"/>
        </g>
        <g transform="matrix(1,0,0,1,0,-113.7)">
            <path d="M268.02,477.75L280.4,477.75" style="fill:none;fill-rule:nonzero;stroke:rgb(166,166,166);stroke-width:1.13px;stroke-linecap:round;stroke-dasharray:2.26,2.26;"/>
        </g>
        <g transform="matrix(1,0,0,1,0,-113.83)">
            <rect x="272.51" y="476.19" width="3.25" height="3.25" style="fill:rgb(166,166,166);stroke:rgb(255,192,0);stroke-width:0.16px;"/>
        </g>
        <g transform="matrix(1,0,0,1,0,-113.83)">
            <path d="M275.76,479.44L272.51,476.19M274.13,476.19L274.13,479.44M272.51,479.44L275.76,476.19" style="fill:rgb(166,166,166);fill-rule:nonzero;stroke:rgb(166,166,166);stroke-width:0.48px;"/>
        </g>
        <g transform="matrix(1,0,0,1,0,-113.7)">
            <path d="M310.88,477.75L323.26,477.75" style="fill:none;fill-rule:nonzero;stroke:rgb(255,192,0);stroke-width:1.13px;stroke-linecap:round;"/>
        </g>
        <g transform="matrix(0,-1,-1,0,794.82,680.99)">
            <circle cx="317.005" cy="477.815" r="1.625" style="fill:rgb(255,192,0);stroke:rgb(255,192,0);stroke-width:0.48px;"/>
        </g>
        <g transform="matrix(1,0,0,1,0,-113.7)">
            <path d="M352.2,477.75L364.58,477.75" style="fill:none;fill-rule:nonzero;stroke:rgb(91,155,213);stroke-width:1.13px;stroke-linecap:round;"/>
        </g>
        <g transform="matrix(1,0,0,1,0,-113.83)">
            <path d="M359.95,479.44L356.7,476.19M358.33,476.19L358.33,479.44M356.7,479.44L359.95,476.19" style="fill:rgb(91,155,213);fill-rule:nonzero;stroke:rgb(91,155,213);stroke-width:0.48px;"/>
        </g>
        <g transform="matrix(1,0,0,1,0,40.83)">
            <rect x="50.684" y="282.93" width="493.87" height="235.11" style="fill:none;stroke:rgb(218,218,218);stroke-width:0.48px;"/>
        </g>
    </g>
</svg>
